ISO-10303-21;
HEADER;
FILE_DESCRIPTION (( 'STEP AP203' ),
    '1' );
FILE_NAME ('cuna.step',
    '2026-09-02T19:50:00',
    ( '' ),
    ( '' ),
    'SwSTEP 2.0',
    'SolidWorks 2025',
    '' );
FILE_SCHEMA (( 'CONFIG_CONTROL_DESIGN' ));
ENDSEC;

DATA;
#1 = ORIENTED_EDGE ( 'NONE', *, *, #203, .F. ) ;
#2 = CALENDAR_DATE ( 2026, 2, 9 ) ;
#3 = EDGE_CURVE ( 'NONE', #253, #347, #326, .T. ) ;
#4 = DIRECTION ( 'NONE',  ( 1.084202172485504434E-16, -0.000000000000000000, 1.000000000000000000 ) ) ;
#5 = FACE_OUTER_BOUND ( 'NONE', #647, .T. ) ;
#6 = EDGE_CURVE ( 'NONE', #621, #302, #699, .T. ) ;
#7 = AXIS2_PLACEMENT_3D ( 'NONE', #10, #115, #230 ) ;
#8 = SECURITY_CLASSIFICATION_LEVEL ( 'unclassified' ) ;
#9 = VECTOR ( 'NONE', #472, 1000.000000000000000 ) ;
#10 = CARTESIAN_POINT ( 'NONE',  ( -15.99999999999999645, 23.50000000000001066, -12.02072594216368451 ) ) ;
#11 = ORIENTED_EDGE ( 'NONE', *, *, #644, .T. ) ;
#12 = SHAPE_DEFINITION_REPRESENTATION ( #448, #43 ) ;
#13 = CARTESIAN_POINT ( 'NONE',  ( -15.99999999999999645, 16.49999999999999645, -7.979274057836301282 ) ) ;
#14 = CARTESIAN_POINT ( 'NONE',  ( -2.500000000000000444, 40.00000000000000000, -19.99999999999999645 ) ) ;
#15 = DIRECTION ( 'NONE',  ( 0.000000000000000000, -1.000000000000000000, 0.000000000000000000 ) ) ;
#16 = CARTESIAN_POINT ( 'NONE',  ( -0.9999999999999974465, 0.000000000000000000, -0.3558427019233045829 ) ) ;
#17 = CARTESIAN_POINT ( 'NONE',  ( -15.99999999999999645, 20.00000000000000000, -14.04145188432737967 ) ) ;
#18 = VECTOR ( 'NONE', #658, 1000.000000000000000 ) ;
#19 = ORIENTED_EDGE ( 'NONE', *, *, #283, .T. ) ;
#20 = CARTESIAN_POINT ( 'NONE',  ( -2.500000000000000444, 40.00000000000000000, -22.00000000000000000 ) ) ;
#21 = CARTESIAN_POINT ( 'NONE',  ( -3.999999999999997335, 0.000000000000000000, -0.3558427019233042499 ) ) ;
#22 = DIRECTION ( 'NONE',  ( 1.256336779565967701E-16, 0.000000000000000000, 1.000000000000000000 ) ) ;
#23 = EDGE_CURVE ( 'NONE', #669, #307, #276, .T. ) ;
#24 = FACE_OUTER_BOUND ( 'NONE', #634, .T. ) ;
#25 = ORIENTED_EDGE ( 'NONE', *, *, #152, .T. ) ;
#26 = FACE_OUTER_BOUND ( 'NONE', #712, .T. ) ;
#27 = CC_DESIGN_PERSON_AND_ORGANIZATION_ASSIGNMENT ( #111, #390, ( #177 ) ) ;
#28 = LINE ( 'NONE', #418, #465 ) ;
#29 = CC_DESIGN_SECURITY_CLASSIFICATION ( #177, ( #117 ) ) ;
#30 = ORIENTED_EDGE ( 'NONE', *, *, #333, .T. ) ;
#31 = LINE ( 'NONE', #629, #51 ) ;
#32 = ADVANCED_FACE ( 'NONE', ( #5 ), #219, .T. ) ;
#33 = LINE ( 'NONE', #470, #487 ) ;
#34 = ORIENTED_EDGE ( 'NONE', *, *, #668, .F. ) ;
#35 = CARTESIAN_POINT ( 'NONE',  ( -0.9999999999999974465, 40.00000000000000000, -2.655529440325959730E-32 ) ) ;
#36 = PLANE ( 'NONE',  #233 ) ;
#37 = ORIENTED_EDGE ( 'NONE', *, *, #367, .T. ) ;
#38 = FACE_OUTER_BOUND ( 'NONE', #491, .T. ) ;
#39 = DIRECTION ( 'NONE',  ( 2.602085213965210642E-16, 0.000000000000000000, 1.000000000000000000 ) ) ;
#40 = VECTOR ( 'NONE', #607, 1000.000000000000000 ) ;
#41 = ORIENTED_EDGE ( 'NONE', *, *, #73, .T. ) ;
#42 = AXIS2_PLACEMENT_3D ( 'NONE', #568, #571, #295 ) ;
#43 = ADVANCED_BREP_SHAPE_REPRESENTATION ( 'cuna', ( #291, #305 ), #338 ) ;
#44 = LINE ( 'NONE', #154, #18 ) ;
#45 = ORIENTED_EDGE ( 'NONE', *, *, #662, .F. ) ;
#46 = CARTESIAN_POINT ( 'NONE',  ( -4.000000000000002665, 0.000000000000000000, -20.35584270192330436 ) ) ;
#47 = VERTEX_POINT ( 'NONE', #445 ) ;
#48 = PLANE ( 'NONE',  #590 ) ;
#49 = PRODUCT_DEFINITION ( 'UNKNOWN', '', #117, #681 ) ;
#50 = ORIENTED_EDGE ( 'NONE', *, *, #364, .F. ) ;
#51 = VECTOR ( 'NONE', #300, 1000.000000000000000 ) ;
#52 = AXIS2_PLACEMENT_3D ( 'NONE', #404, #517, #521 ) ;
#53 = EDGE_CURVE ( 'NONE', #95, #347, #119, .T. ) ;
#54 = CARTESIAN_POINT ( 'NONE',  ( -0.5000000000000003331, 40.00000000000000000, -15.00000000000008704 ) ) ;
#55 = ORIENTED_EDGE ( 'NONE', *, *, #75, .T. ) ;
#56 = PLANE ( 'NONE',  #61 ) ;
#57 = EDGE_CURVE ( 'NONE', #161, #556, #392, .T. ) ;
#58 = ORIENTED_EDGE ( 'NONE', *, *, #6, .F. ) ;
#59 = LINE ( 'NONE', #170, #94 ) ;
#60 = ORIENTED_EDGE ( 'NONE', *, *, #53, .F. ) ;
#61 = AXIS2_PLACEMENT_3D ( 'NONE', #496, #4, #356 ) ;
#62 = CARTESIAN_POINT ( 'NONE',  ( -15.99999999999999645, 20.00000000000000000, -14.04145188432737967 ) ) ;
#63 = ORIENTED_EDGE ( 'NONE', *, *, #640, .T. ) ;
#64 = FACE_OUTER_BOUND ( 'NONE', #679, .T. ) ;
#65 = ORIENTED_EDGE ( 'NONE', *, *, #128, .T. ) ;
#66 = DIRECTION ( 'NONE',  ( -0.000000000000000000, -1.000000000000000000, -0.000000000000000000 ) ) ;
#67 = CARTESIAN_POINT ( 'NONE',  ( -0.5000000000000002220, 0.000000000000000000, -22.00000000000000000 ) ) ;
#68 = VECTOR ( 'NONE', #121, 1000.000000000000000 ) ;
#69 = CARTESIAN_POINT ( 'NONE',  ( -0.5000000000000003331, 40.00000000000000000, -15.00000000000008704 ) ) ;
#70 = VECTOR ( 'NONE', #427, 1000.000000000000000 ) ;
#71 = CIRCLE ( 'NONE', #433, 2.000000000000001776 ) ;
#72 = PLANE ( 'NONE',  #82 ) ;
#73 = EDGE_CURVE ( 'NONE', #47, #375, #175, .T. ) ;
#74 = CARTESIAN_POINT ( 'NONE',  ( -3.200000000000001510, 40.00000000000000000, -12.30000000000005755 ) ) ;
#75 = EDGE_CURVE ( 'NONE', #464, #191, #341, .T. ) ;
#76 = LINE ( 'NONE', #362, #129 ) ;
#77 = ORIENTED_EDGE ( 'NONE', *, *, #511, .F. ) ;
#78 = LINE ( 'NONE', #141, #270 ) ;
#79 = CARTESIAN_POINT ( 'NONE',  ( -0.5000000000000004441, 40.00000000000000000, -9.999999999999998224 ) ) ;
#80 = ORIENTED_EDGE ( 'NONE', *, *, #23, .F. ) ;
#81 = CARTESIAN_POINT ( 'NONE',  ( -15.99999999999999645, 16.49999999999999645, -7.979274057836301282 ) ) ;
#82 = AXIS2_PLACEMENT_3D ( 'NONE', #132, #239, #245 ) ;
#83 = CARTESIAN_POINT ( 'NONE',  ( -15.99999999999999645, 20.00000000000000000, -5.958548115672609669 ) ) ;
#84 = CIRCLE ( 'NONE', #373, 2.000000000000001776 ) ;
#85 = VERTEX_POINT ( 'NONE', #562 ) ;
#86 = LINE ( 'NONE', #677, #221 ) ;
#87 = CARTESIAN_POINT ( 'NONE',  ( -15.99999999999999645, 16.49999999999999645, -12.02072594216368628 ) ) ;
#88 = ORIENTED_EDGE ( 'NONE', *, *, #259, .F. ) ;
#89 = CARTESIAN_POINT ( 'NONE',  ( -5.999999999999996447, 40.00000000000000000, 0.000000000000000000 ) ) ;
#90 = CARTESIAN_POINT ( 'NONE',  ( -3.999999999999997335, 40.00000000000000000, -0.3558427019233042499 ) ) ;
#91 = ORIENTED_EDGE ( 'NONE', *, *, #585, .F. ) ;
#92 = DIRECTION ( 'NONE',  ( 0.000000000000000000, -0.8660254037844387076, -0.4999999999999998890 ) ) ;
#93 = CARTESIAN_POINT ( 'NONE',  ( -15.99999999999999645, 20.00000000000000000, -14.04145188432737967 ) ) ;
#94 = VECTOR ( 'NONE', #606, 1000.000000000000000 ) ;
#95 = VERTEX_POINT ( 'NONE', #293 ) ;
#96 = CC_DESIGN_APPROVAL ( #380, ( #177 ) ) ;
#97 = EDGE_CURVE ( 'NONE', #556, #47, #28, .T. ) ;
#98 = APPROVAL_ROLE ( '' ) ;
#99 = DIRECTION ( 'NONE',  ( 7.511572993685795156E-17, 0.5000000000000004441, 0.8660254037844384856 ) ) ;
#100 = ORIENTED_EDGE ( 'NONE', *, *, #277, .T. ) ;
#101 = LINE ( 'NONE', #104, #176 ) ;
#102 = ORIENTED_EDGE ( 'NONE', *, *, #531, .T. ) ;
#103 = ADVANCED_FACE ( 'NONE', ( #251 ), #626, .F. ) ;
#104 = CARTESIAN_POINT ( 'NONE',  ( -0.5000000000000002220, 40.00000000000000000, -19.99999999999999645 ) ) ;
#105 = ORIENTED_EDGE ( 'NONE', *, *, #57, .F. ) ;
#106 = VECTOR ( 'NONE', #646, 1000.000000000000000 ) ;
#107 = LOCAL_TIME ( 15, 50, 0.000000000000000000, #198 ) ;
#108 = EDGE_CURVE ( 'NONE', #201, #535, #460, .T. ) ;
#109 = LINE ( 'NONE', #329, #660 ) ;
#110 = VERTEX_POINT ( 'NONE', #569 ) ;
#111 = PERSON_AND_ORGANIZATION ( #160, #421 ) ;
#112 = CARTESIAN_POINT ( 'NONE',  ( -0.9999999999999974465, 40.00000000000000000, -2.655529440325959730E-32 ) ) ;
#113 = ORIENTED_EDGE ( 'NONE', *, *, #389, .T. ) ;
#114 = DATE_TIME_ROLE ( 'classification_date' ) ;
#115 = DIRECTION ( 'NONE',  ( 7.511572993685797621E-17, -0.4999999999999999445, 0.8660254037844387076 ) ) ;
#116 = ORIENTED_EDGE ( 'NONE', *, *, #97, .F. ) ;
#117 = PRODUCT_DEFINITION_FORMATION_WITH_SPECIFIED_SOURCE ( 'ANY', '', #416, .NOT_KNOWN. ) ;
#118 = CARTESIAN_POINT ( 'NONE',  ( -5.999999999999997335, 19.99999999999999645, -5.958548115672609669 ) ) ;
#119 = LINE ( 'NONE', #67, #651 ) ;
#120 = COORDINATED_UNIVERSAL_TIME_OFFSET ( 4, 0, .BEHIND. ) ;
#121 = DIRECTION ( 'NONE',  ( -0.000000000000000000, -1.000000000000000000, -0.000000000000000000 ) ) ;
#122 = APPROVAL ( #371, 'UNSPECIFIED' ) ;
#123 = DIRECTION ( 'NONE',  ( 0.000000000000000000, 0.000000000000000000, -1.000000000000000000 ) ) ;
#124 = ADVANCED_FACE ( 'NONE', ( #525 ), #72, .F. ) ;
#125 = DIRECTION ( 'NONE',  ( 0.000000000000000000, 0.000000000000000000, 1.000000000000000000 ) ) ;
#126 = ORIENTED_EDGE ( 'NONE', *, *, #459, .T. ) ;
#127 = ADVANCED_FACE ( 'NONE', ( #136 ), #190, .F. ) ;
#128 = EDGE_CURVE ( 'NONE', #370, #273, #357, .T. ) ;
#129 = VECTOR ( 'NONE', #642, 1000.000000000000000 ) ;
#130 = CARTESIAN_POINT ( 'NONE',  ( -0.9999999999999974465, 40.00000000000000000, -2.655529440325959730E-32 ) ) ;
#131 = VECTOR ( 'NONE', #22, 1000.000000000000000 ) ;
#132 = CARTESIAN_POINT ( 'NONE',  ( -3.200000000000002398, 40.00000000000000000, -20.35584270192330436 ) ) ;
#133 = ADVANCED_FACE ( 'NONE', ( #296 ), #36, .F. ) ;
#134 = ORIENTED_EDGE ( 'NONE', *, *, #618, .F. ) ;
#135 = LINE ( 'NONE', #466, #454 ) ;
#136 = FACE_OUTER_BOUND ( 'NONE', #215, .T. ) ;
#137 = ORIENTED_EDGE ( 'NONE', *, *, #285, .T. ) ;
#138 = DIRECTION ( 'NONE',  ( -0.000000000000000000, -1.000000000000000000, -0.000000000000000000 ) ) ;
#139 = PLANE ( 'NONE',  #697 ) ;
#140 = EDGE_LOOP ( 'NONE', ( #55, #355, #542, #212 ) ) ;
#141 = CARTESIAN_POINT ( 'NONE',  ( -3.999999999999997335, 0.000000000000000000, -0.3558427019233042499 ) ) ;
#142 = AXIS2_PLACEMENT_3D ( 'NONE', #87, #580, #413 ) ;
#143 = PLANE ( 'NONE',  #530 ) ;
#144 = LOCAL_TIME ( 15, 50, 0.000000000000000000, #482 ) ;
#145 = EDGE_LOOP ( 'NONE', ( #478, #321, #693, #311 ) ) ;
#146 = DATE_AND_TIME ( #365, #107 ) ;
#147 = DIRECTION ( 'NONE',  ( 0.000000000000000000, 0.000000000000000000, -1.000000000000000000 ) ) ;
#148 = EDGE_LOOP ( 'NONE', ( #25, #88, #456, #65 ) ) ;
#149 = CALENDAR_DATE ( 2026, 2, 9 ) ;
#150 = LINE ( 'NONE', #207, #625 ) ;
#151 = ORIENTED_EDGE ( 'NONE', *, *, #664, .T. ) ;
#152 = EDGE_CURVE ( 'NONE', #273, #246, #695, .T. ) ;
#153 = APPLICATION_PROTOCOL_DEFINITION ( 'international standard', 'config_control_design', 1994, #444 ) ;
#154 = CARTESIAN_POINT ( 'NONE',  ( -7.750000000000046185, 40.00000000000000000, -7.749999999999966249 ) ) ;
#155 = VECTOR ( 'NONE', #518, 1000.000000000000000 ) ;
#156 = ORIENTED_EDGE ( 'NONE', *, *, #414, .F. ) ;
#157 = CC_DESIGN_PERSON_AND_ORGANIZATION_ASSIGNMENT ( #648, #209, ( #416 ) ) ;
#158 = PERSON_AND_ORGANIZATION ( #160, #421 ) ;
#159 = CARTESIAN_POINT ( 'NONE',  ( -4.000000000000000000, 0.000000000000000000, -22.00000000000000000 ) ) ;
#160 = PERSON ( 'UNSPECIFIED', 'UNSPECIFIED', 'UNSPECIFIED', ('UNSPECIFIED'), ('UNSPECIFIED'), ('UNSPECIFIED') ) ;
#161 = VERTEX_POINT ( 'NONE', #200 ) ;
#162 = ADVANCED_FACE ( 'NONE', ( #687 ), #139, .F. ) ;
#163 = PERSON_AND_ORGANIZATION ( #160, #421 ) ;
#164 = DIRECTION ( 'NONE',  ( 0.000000000000000000, 0.8660254037844387076, 0.4999999999999997780 ) ) ;
#165 = VERTEX_POINT ( 'NONE', #683 ) ;
#166 = APPROVAL_DATE_TIME ( #146, #505 ) ;
#167 = CARTESIAN_POINT ( 'NONE',  ( -15.99999999999999645, 23.50000000000001066, -12.02072594216368451 ) ) ;
#168 = ORIENTED_EDGE ( 'NONE', *, *, #668, .T. ) ;
#169 = AXIS2_PLACEMENT_3D ( 'NONE', #13, #661, #603 ) ;
#170 = CARTESIAN_POINT ( 'NONE',  ( -0.5000000000000004441, 0.000000000000000000, -9.999999999999998224 ) ) ;
#171 = DIRECTION ( 'NONE',  ( 0.000000000000000000, 0.8660254037844387076, 0.4999999999999997780 ) ) ;
#172 = DIRECTION ( 'NONE',  ( 0.000000000000000000, -1.000000000000000000, 0.000000000000000000 ) ) ;
#173 = ORIENTED_EDGE ( 'NONE', *, *, #459, .F. ) ;
#174 = CARTESIAN_POINT ( 'NONE',  ( -3.999999999999997335, 40.00000000000000000, -0.3558427019233042499 ) ) ;
#175 = LINE ( 'NONE', #396, #602 ) ;
#176 = VECTOR ( 'NONE', #704, 1000.000000000000000 ) ;
#177 = SECURITY_CLASSIFICATION ( '', '', #8 ) ;
#178 = CARTESIAN_POINT ( 'NONE',  ( -0.9999999999999974465, 0.000000000000000000, -0.3558427019233045829 ) ) ;
#179 = ORIENTED_EDGE ( 'NONE', *, *, #6, .T. ) ;
#180 = EDGE_CURVE ( 'NONE', #307, #526, #76, .T. ) ;
#181 = CARTESIAN_POINT ( 'NONE',  ( -4.000000000000002665, 0.000000000000000000, -20.35584270192330436 ) ) ;
#182 = EDGE_LOOP ( 'NONE', ( #336, #299, #80, #407 ) ) ;
#183 = ADVANCED_FACE ( 'NONE', ( #193 ), #298, .F. ) ;
#184 = DIRECTION ( 'NONE',  ( 0.000000000000000000, 0.000000000000000000, 1.000000000000000000 ) ) ;
#185 = LINE ( 'NONE', #515, #499 ) ;
#186 = ORIENTED_EDGE ( 'NONE', *, *, #152, .F. ) ;
#187 = VECTOR ( 'NONE', #583, 1000.000000000000000 ) ;
#188 = DIRECTION ( 'NONE',  ( 1.000000000000000000, 0.000000000000000000, -1.577021341797097560E-16 ) ) ;
#189 = VECTOR ( 'NONE', #436, 1000.000000000000114 ) ;
#190 = PLANE ( 'NONE',  #432 ) ;
#191 = VERTEX_POINT ( 'NONE', #21 ) ;
#192 = CARTESIAN_POINT ( 'NONE',  ( -0.5000000000000002220, 0.000000000000000000, -19.99999999999999645 ) ) ;
#193 = FACE_OUTER_BOUND ( 'NONE', #438, .T. ) ;
#194 = ORIENTED_EDGE ( 'NONE', *, *, #539, .F. ) ;
#195 = LINE ( 'NONE', #462, #131 ) ;
#196 = DIRECTION ( 'NONE',  ( 1.807003620809173954E-17, 0.000000000000000000, -1.000000000000000000 ) ) ;
#197 = ORIENTED_EDGE ( 'NONE', *, *, #414, .T. ) ;
#198 = COORDINATED_UNIVERSAL_TIME_OFFSET ( 4, 0, .BEHIND. ) ;
#199 = VECTOR ( 'NONE', #483, 1000.000000000000114 ) ;
#200 = CARTESIAN_POINT ( 'NONE',  ( -15.99999999999999645, 16.49999999999999645, -12.02072594216368628 ) ) ;
#201 = VERTEX_POINT ( 'NONE', #633 ) ;
#202 = CARTESIAN_POINT ( 'NONE',  ( -4.000000000000000000, 40.00000000000000000, -19.99999999999999645 ) ) ;
#203 = EDGE_CURVE ( 'NONE', #253, #280, #678, .T. ) ;
#204 = CARTESIAN_POINT ( 'NONE',  ( -0.5000000000000003331, 40.00000000000000000, -15.00000000000008704 ) ) ;
#205 = ORIENTED_EDGE ( 'NONE', *, *, #684, .T. ) ;
#206 = EDGE_CURVE ( 'NONE', #516, #621, #185, .T. ) ;
#207 = CARTESIAN_POINT ( 'NONE',  ( -15.99999999999999645, 16.49999999999999645, -7.979274057836301282 ) ) ;
#208 = ORIENTED_EDGE ( 'NONE', *, *, #531, .F. ) ;
#209 = PERSON_AND_ORGANIZATION_ROLE ( 'design_owner' ) ;
#210 = CARTESIAN_POINT ( 'NONE',  ( -15.99999999999999645, 20.00000000000000000, -14.04145188432737967 ) ) ;
#211 = AXIS2_PLACEMENT_3D ( 'NONE', #83, #366, #512 ) ;
#212 = ORIENTED_EDGE ( 'NONE', *, *, #235, .T. ) ;
#213 = CARTESIAN_POINT ( 'NONE',  ( 0.000000000000000000, 0.000000000000000000, 0.000000000000000000 ) ) ;
#214 = DIRECTION ( 'NONE',  ( 0.000000000000000000, -0.8660254037844383745, 0.5000000000000003331 ) ) ;
#215 = EDGE_LOOP ( 'NONE', ( #1, #600, #60, #324, #468, #423, #173, #508, #494, #654, #659, #156 ) ) ;
#216 = LINE ( 'NONE', #440, #385 ) ;
#217 = ORIENTED_EDGE ( 'NONE', *, *, #57, .T. ) ;
#218 = CARTESIAN_POINT ( 'NONE',  ( -5.999999999999996447, 40.00000000000000000, 0.000000000000000000 ) ) ;
#219 = CYLINDRICAL_SURFACE ( 'NONE', #453, 2.000000000000001776 ) ;
#220 = VECTOR ( 'NONE', #147, 1000.000000000000000 ) ;
#221 = VECTOR ( 'NONE', #510, 1000.000000000000000 ) ;
#222 = DIRECTION ( 'NONE',  ( 0.000000000000000000, -0.000000000000000000, 1.000000000000000000 ) ) ;
#223 = ADVANCED_FACE ( 'NONE', ( #24 ), #143, .F. ) ;
#224 = EDGE_CURVE ( 'NONE', #547, #452, #33, .T. ) ;
#225 = DIRECTION ( 'NONE',  ( 0.000000000000000000, 1.000000000000000000, 0.000000000000000000 ) ) ;
#226 = PLANE ( 'NONE',  #169 ) ;
#227 = DIRECTION ( 'NONE',  ( 0.000000000000000000, -1.000000000000000000, 0.000000000000000000 ) ) ;
#228 = CC_DESIGN_PERSON_AND_ORGANIZATION_ASSIGNMENT ( #619, #605, ( #117 ) ) ;
#229 = CALENDAR_DATE ( 2026, 2, 9 ) ;
#230 = DIRECTION ( 'NONE',  ( 0.000000000000000000, -0.8660254037844385966, -0.4999999999999998890 ) ) ;
#231 = EDGE_CURVE ( 'NONE', #246, #85, #377, .T. ) ;
#232 = ORIENTED_EDGE ( 'NONE', *, *, #206, .F. ) ;
#233 = AXIS2_PLACEMENT_3D ( 'NONE', #410, #301, #637 ) ;
#234 = CARTESIAN_POINT ( 'NONE',  ( -3.200000000000002398, 0.000000000000000000, -20.35584270192330436 ) ) ;
#235 = EDGE_CURVE ( 'NONE', #387, #464, #216, .T. ) ;
#236 = EDGE_LOOP ( 'NONE', ( #401, #179, #378, #168, #265, #628, #30, #11, #500, #419, #529, #330 ) ) ;
#237 = VERTEX_POINT ( 'NONE', #425 ) ;
#238 = DIRECTION ( 'NONE',  ( 1.000000000000000000, -0.000000000000000000, -8.673617379884034239E-17 ) ) ;
#239 = DIRECTION ( 'NONE',  ( 1.000000000000000000, 0.000000000000000000, -1.256336779565967701E-16 ) ) ;
#240 = PLANE ( 'NONE',  #52 ) ;
#241 = CARTESIAN_POINT ( 'NONE',  ( -15.99999999999999645, 23.50000000000001066, -7.979274057836304834 ) ) ;
#242 = VERTEX_POINT ( 'NONE', #381 ) ;
#243 = VECTOR ( 'NONE', #340, 1000.000000000000000 ) ;
#244 = DIRECTION ( 'NONE',  ( -2.602085213965210642E-16, 0.000000000000000000, -1.000000000000000000 ) ) ;
#245 = DIRECTION ( 'NONE',  ( -1.256336779565967701E-16, 0.000000000000000000, -1.000000000000000000 ) ) ;
#246 = VERTEX_POINT ( 'NONE', #437 ) ;
#247 = DIRECTION ( 'NONE',  ( 1.577021341797097560E-16, 0.000000000000000000, 1.000000000000000000 ) ) ;
#248 = CARTESIAN_POINT ( 'NONE',  ( -15.99999999999999645, 23.50000000000001066, -7.979274057836304834 ) ) ;
#249 = ORIENTED_EDGE ( 'NONE', *, *, #231, .T. ) ;
#250 = DIRECTION ( 'NONE',  ( -1.000000000000000000, 0.000000000000000000, 0.000000000000000000 ) ) ;
#251 = FACE_OUTER_BOUND ( 'NONE', #584, .T. ) ;
#252 = EDGE_CURVE ( 'NONE', #526, #547, #44, .T. ) ;
#253 = VERTEX_POINT ( 'NONE', #374 ) ;
#254 = EDGE_CURVE ( 'NONE', #650, #452, #101, .T. ) ;
#255 = DIRECTION ( 'NONE',  ( 1.000000000000000000, 0.000000000000000000, 0.000000000000000000 ) ) ;
#256 = VECTOR ( 'NONE', #405, 1000.000000000000000 ) ;
#257 = APPROVAL_PERSON_ORGANIZATION ( #339, #380, #601 ) ;
#258 = FACE_OUTER_BOUND ( 'NONE', #182, .T. ) ;
#259 = EDGE_CURVE ( 'NONE', #237, #246, #490, .T. ) ;
#260 = ORIENTED_EDGE ( 'NONE', *, *, #611, .F. ) ;
#261 =( NAMED_UNIT ( * ) PLANE_ANGLE_UNIT ( ) SI_UNIT ( $, .RADIAN. ) );
#262 = DIRECTION ( 'NONE',  ( -2.602085213965210642E-16, 0.000000000000000000, -1.000000000000000000 ) ) ;
#263 = ORIENTED_EDGE ( 'NONE', *, *, #442, .F. ) ;
#264 = CARTESIAN_POINT ( 'NONE',  ( -0.5000000000000002220, 40.00000000000000000, -22.00000000000000000 ) ) ;
#265 = ORIENTED_EDGE ( 'NONE', *, *, #495, .T. ) ;
#266 = DIRECTION ( 'NONE',  ( 0.000000000000000000, 0.000000000000000000, -1.000000000000000000 ) ) ;
#267 = PLANE ( 'NONE',  #577 ) ;
#268 = VECTOR ( 'NONE', #238, 1000.000000000000000 ) ;
#269 = ORIENTED_EDGE ( 'NONE', *, *, #278, .T. ) ;
#270 = VECTOR ( 'NONE', #244, 1000.000000000000000 ) ;
#271 = CARTESIAN_POINT ( 'NONE',  ( -0.5000000000000003331, 0.000000000000000000, -15.00000000000008704 ) ) ;
#272 = DIRECTION ( 'NONE',  ( -0.000000000000000000, 1.000000000000000000, -0.000000000000000000 ) ) ;
#273 = VERTEX_POINT ( 'NONE', #480 ) ;
#274 = PERSON_AND_ORGANIZATION ( #160, #421 ) ;
#275 = DIRECTION ( 'NONE',  ( -0.7071067811865511255, -0.000000000000000000, -0.7071067811865439090 ) ) ;
#276 = LINE ( 'NONE', #497, #386 ) ;
#277 = EDGE_CURVE ( 'NONE', #547, #669, #711, .T. ) ;
#278 = EDGE_CURVE ( 'NONE', #363, #161, #546, .T. ) ;
#279 = DIRECTION ( 'NONE',  ( 0.000000000000000000, 0.000000000000000000, -1.000000000000000000 ) ) ;
#280 = VERTEX_POINT ( 'NONE', #477 ) ;
#281 = VECTOR ( 'NONE', #391, 1000.000000000000000 ) ;
#282 = LOCAL_TIME ( 15, 50, 0.000000000000000000, #120 ) ;
#283 = EDGE_CURVE ( 'NONE', #556, #549, #150, .T. ) ;
#284 = LINE ( 'NONE', #234, #682 ) ;
#285 = EDGE_CURVE ( 'NONE', #347, #621, #369, .T. ) ;
#286 = CARTESIAN_POINT ( 'NONE',  ( -4.000000000000000000, 40.00000000000000000, -19.99999999999999645 ) ) ;
#287 = DATE_AND_TIME ( #229, #282 ) ;
#288 = EDGE_CURVE ( 'NONE', #535, #698, #593, .T. ) ;
#289 = PLANE ( 'NONE',  #408 ) ;
#290 = EDGE_LOOP ( 'NONE', ( #411, #426, #638, #523 ) ) ;
#291 = MANIFOLD_SOLID_BREP ( 'Saliente-Extruir3', #520 ) ;
#292 = PLANE ( 'NONE',  #7 ) ;
#293 = CARTESIAN_POINT ( 'NONE',  ( -2.500000000000000444, 0.000000000000000000, -22.00000000000000000 ) ) ;
#294 = VECTOR ( 'NONE', #15, 1000.000000000000000 ) ;
#295 = DIRECTION ( 'NONE',  ( -1.000000000000000000, 0.000000000000000000, -0.000000000000000000 ) ) ;
#296 = FACE_OUTER_BOUND ( 'NONE', #538, .T. ) ;
#297 = PLANE ( 'NONE',  #700 ) ;
#298 = PLANE ( 'NONE',  #211 ) ;
#299 = ORIENTED_EDGE ( 'NONE', *, *, #180, .F. ) ;
#300 = DIRECTION ( 'NONE',  ( 0.000000000000000000, 0.000000000000000000, 1.000000000000000000 ) ) ;
#301 = DIRECTION ( 'NONE',  ( -5.311058880651920281E-33, 0.000000000000000000, -1.000000000000000000 ) ) ;
#302 = VERTEX_POINT ( 'NONE', #653 ) ;
#303 = VECTOR ( 'NONE', #172, 1000.000000000000000 ) ;
#304 = FACE_OUTER_BOUND ( 'NONE', #685, .T. ) ;
#305 = AXIS2_PLACEMENT_3D ( 'NONE', #213, #694, #255 ) ;
#306 = DIRECTION ( 'NONE',  ( 1.577021341797097560E-16, 0.000000000000000000, 1.000000000000000000 ) ) ;
#307 = VERTEX_POINT ( 'NONE', #599 ) ;
#308 = DIRECTION ( 'NONE',  ( 0.000000000000000000, 0.000000000000000000, -1.000000000000000000 ) ) ;
#309 = ADVANCED_FACE ( 'NONE', ( #588 ), #48, .F. ) ;
#310 = CARTESIAN_POINT ( 'NONE',  ( -4.000000000000002665, 40.00000000000000000, -20.35584270192330436 ) ) ;
#311 = ORIENTED_EDGE ( 'NONE', *, *, #108, .T. ) ;
#312 = ADVANCED_FACE ( 'NONE', ( #541 ), #537, .F. ) ;
#313 = FACE_OUTER_BOUND ( 'NONE', #435, .T. ) ;
#314 = ORIENTED_EDGE ( 'NONE', *, *, #439, .T. ) ;
#315 = CARTESIAN_POINT ( 'NONE',  ( -15.99999999999999645, 23.50000000000001066, -7.979274057836304834 ) ) ;
#316 = VECTOR ( 'NONE', #262, 1000.000000000000000 ) ;
#317 = CARTESIAN_POINT ( 'NONE',  ( -15.99999999999999645, 20.00000000000000000, -5.958548115672609669 ) ) ;
#318 = ORIENTED_EDGE ( 'NONE', *, *, #108, .F. ) ;
#319 = DATE_AND_TIME ( #149, #144 ) ;
#320 = LINE ( 'NONE', #317, #199 ) ;
#321 = ORIENTED_EDGE ( 'NONE', *, *, #439, .F. ) ;
#322 = CARTESIAN_POINT ( 'NONE',  ( -15.99999999999999645, 23.50000000000001066, -12.02072594216368451 ) ) ;
#323 = DIRECTION ( 'NONE',  ( 0.000000000000000000, -0.000000000000000000, 1.000000000000000000 ) ) ;
#324 = ORIENTED_EDGE ( 'NONE', *, *, #662, .T. ) ;
#325 = DIRECTION ( 'NONE',  ( 0.000000000000000000, -0.8660254037844383745, 0.5000000000000003331 ) ) ;
#326 = CIRCLE ( 'NONE', #544, 2.000000000000001776 ) ;
#327 = ORIENTED_EDGE ( 'NONE', *, *, #684, .F. ) ;
#328 = AXIS2_PLACEMENT_3D ( 'NONE', #202, #476, #266 ) ;
#329 = CARTESIAN_POINT ( 'NONE',  ( -5.999999999999997335, 20.00000000000000000, -14.04145188432737967 ) ) ;
#330 = ORIENTED_EDGE ( 'NONE', *, *, #585, .T. ) ;
#331 = EDGE_CURVE ( 'NONE', #549, #370, #320, .T. ) ;
#332 = LINE ( 'NONE', #174, #243 ) ;
#333 = EDGE_CURVE ( 'NONE', #351, #201, #533, .T. ) ;
#334 = ORIENTED_EDGE ( 'NONE', *, *, #231, .F. ) ;
#335 = CARTESIAN_POINT ( 'NONE',  ( -6.000000000000000000, 40.00000000000000000, -19.99999999999999645 ) ) ;
#336 = ORIENTED_EDGE ( 'NONE', *, *, #252, .F. ) ;
#337 = AXIS2_PLACEMENT_3D ( 'NONE', #286, #225, #552 ) ;
#338 =( GEOMETRIC_REPRESENTATION_CONTEXT ( 3 ) GLOBAL_UNCERTAINTY_ASSIGNED_CONTEXT ( ( #344 ) ) GLOBAL_UNIT_ASSIGNED_CONTEXT ( ( #532, #261, #424 ) ) REPRESENTATION_CONTEXT ( 'NONE', 'WORKASPACE' ) );
#339 = PERSON_AND_ORGANIZATION ( #160, #421 ) ;
#340 = DIRECTION ( 'NONE',  ( -0.000000000000000000, -1.000000000000000000, -0.000000000000000000 ) ) ;
#341 = LINE ( 'NONE', #16, #565 ) ;
#342 = APPROVAL_DATE_TIME ( #287, #380 ) ;
#343 = LINE ( 'NONE', #335, #294 ) ;
#344 = UNCERTAINTY_MEASURE_WITH_UNIT (LENGTH_MEASURE( 1.000000000000000082E-05 ), #532, 'distance_accuracy_value', 'NONE');
#345 = DIRECTION ( 'NONE',  ( -1.000000000000000000, 0.000000000000000000, 1.084202172485504434E-16 ) ) ;
#346 = LINE ( 'NONE', #641, #189 ) ;
#347 = VERTEX_POINT ( 'NONE', #159 ) ;
#348 = AXIS2_PLACEMENT_3D ( 'NONE', #204, #275, #455 ) ;
#349 = LINE ( 'NONE', #564, #268 ) ;
#350 = DIRECTION ( 'NONE',  ( 0.000000000000000000, -0.000000000000000000, 1.000000000000000000 ) ) ;
#351 = VERTEX_POINT ( 'NONE', #90 ) ;
#352 = ADVANCED_FACE ( 'NONE', ( #313 ), #267, .F. ) ;
#353 = LINE ( 'NONE', #574, #616 ) ;
#354 = CARTESIAN_POINT ( 'NONE',  ( -5.999999999999997335, 23.50000000000001066, -7.979274057836304834 ) ) ;
#355 = ORIENTED_EDGE ( 'NONE', *, *, #383, .F. ) ;
#356 = DIRECTION ( 'NONE',  ( 1.000000000000000000, 0.000000000000000000, -1.084202172485504434E-16 ) ) ;
#357 = LINE ( 'NONE', #248, #155 ) ;
#358 = ORIENTED_EDGE ( 'NONE', *, *, #611, .T. ) ;
#359 = ADVANCED_FACE ( 'NONE', ( #258 ), #702, .F. ) ;
#360 = VECTOR ( 'NONE', #706, 1000.000000000000000 ) ;
#361 = CARTESIAN_POINT ( 'NONE',  ( -15.99999999999999645, 20.00000000000000000, -5.958548115672609669 ) ) ;
#362 = CARTESIAN_POINT ( 'NONE',  ( -3.200000000000001066, 40.00000000000000000, -12.30000000000005755 ) ) ;
#363 = VERTEX_POINT ( 'NONE', #17 ) ;
#364 = EDGE_CURVE ( 'NONE', #676, #280, #557, .T. ) ;
#365 = CALENDAR_DATE ( 2026, 2, 9 ) ;
#366 = DIRECTION ( 'NONE',  ( -7.511572993685798854E-17, -0.4999999999999997224, -0.8660254037844388186 ) ) ;
#367 = EDGE_CURVE ( 'NONE', #516, #95, #395, .T. ) ;
#368 = ORIENTED_EDGE ( 'NONE', *, *, #224, .F. ) ;
#369 = LINE ( 'NONE', #656, #509 ) ;
#370 = VERTEX_POINT ( 'NONE', #614 ) ;
#371 = APPROVAL_STATUS ( 'not_yet_approved' ) ;
#372 = VECTOR ( 'NONE', #279, 1000.000000000000000 ) ;
#373 = AXIS2_PLACEMENT_3D ( 'NONE', #524, #402, #184 ) ;
#374 = CARTESIAN_POINT ( 'NONE',  ( -6.000000000000000000, 0.000000000000000000, -19.99999999999999645 ) ) ;
#375 = VERTEX_POINT ( 'NONE', #118 ) ;
#376 = PERSON_AND_ORGANIZATION_ROLE ( 'creator' ) ;
#377 = LINE ( 'NONE', #434, #639 ) ;
#378 = ORIENTED_EDGE ( 'NONE', *, *, #539, .T. ) ;
#379 = LINE ( 'NONE', #536, #70 ) ;
#380 = APPROVAL ( #399, 'UNSPECIFIED' ) ;
#381 = CARTESIAN_POINT ( 'NONE',  ( -3.200000000000002398, 40.00000000000000000, -20.35584270192330436 ) ) ;
#382 = EDGE_LOOP ( 'NONE', ( #394, #137, #232, #37 ) ) ;
#383 = EDGE_CURVE ( 'NONE', #351, #191, #332, .T. ) ;
#384 = CARTESIAN_POINT ( 'NONE',  ( -15.99999999999999645, 16.49999999999999645, -12.02072594216368628 ) ) ;
#385 = VECTOR ( 'NONE', #596, 1000.000000000000000 ) ;
#386 = VECTOR ( 'NONE', #502, 1000.000000000000000 ) ;
#387 = VERTEX_POINT ( 'NONE', #443 ) ;
#388 = VECTOR ( 'NONE', #527, 1000.000000000000000 ) ;
#389 = EDGE_CURVE ( 'NONE', #302, #253, #343, .T. ) ;
#390 = PERSON_AND_ORGANIZATION_ROLE ( 'classification_officer' ) ;
#391 = DIRECTION ( 'NONE',  ( 1.000000000000000000, -0.000000000000000000, -8.673617379884034239E-17 ) ) ;
#392 = LINE ( 'NONE', #663, #40 ) ;
#393 = LINE ( 'NONE', #609, #397 ) ;
#394 = ORIENTED_EDGE ( 'NONE', *, *, #53, .T. ) ;
#395 = LINE ( 'NONE', #503, #303 ) ;
#396 = CARTESIAN_POINT ( 'NONE',  ( -5.999999999999997335, 16.49999999999999645, -7.979274057836301282 ) ) ;
#397 = VECTOR ( 'NONE', #667, 1000.000000000000000 ) ;
#398 = VECTOR ( 'NONE', #636, 1000.000000000000000 ) ;
#399 = APPROVAL_STATUS ( 'not_yet_approved' ) ;
#400 = DIRECTION ( 'NONE',  ( 0.000000000000000000, -0.8660254037844383745, 0.5000000000000003331 ) ) ;
#401 = ORIENTED_EDGE ( 'NONE', *, *, #206, .T. ) ;
#402 = DIRECTION ( 'NONE',  ( 0.000000000000000000, 1.000000000000000000, 0.000000000000000000 ) ) ;
#403 = ORIENTED_EDGE ( 'NONE', *, *, #587, .T. ) ;
#404 = CARTESIAN_POINT ( 'NONE',  ( -15.99999999999999645, 0.000000000000000000, 8.673617379884034486E-16 ) ) ;
#405 = DIRECTION ( 'NONE',  ( -0.000000000000000000, -1.000000000000000000, -0.000000000000000000 ) ) ;
#406 = EDGE_CURVE ( 'NONE', #161, #165, #675, .T. ) ;
#407 = ORIENTED_EDGE ( 'NONE', *, *, #277, .F. ) ;
#408 = AXIS2_PLACEMENT_3D ( 'NONE', #446, #561, #222 ) ;
#409 = FACE_BOUND ( 'NONE', #612, .T. ) ;
#410 = CARTESIAN_POINT ( 'NONE',  ( -5.999999999999996447, 40.00000000000000000, 0.000000000000000000 ) ) ;
#411 = ORIENTED_EDGE ( 'NONE', *, *, #479, .T. ) ;
#412 = FACE_OUTER_BOUND ( 'NONE', #570, .T. ) ;
#413 = DIRECTION ( 'NONE',  ( 0.000000000000000000, 0.000000000000000000, 1.000000000000000000 ) ) ;
#414 = EDGE_CURVE ( 'NONE', #280, #110, #393, .T. ) ;
#415 = ORIENTED_EDGE ( 'NONE', *, *, #406, .T. ) ;
#416 = PRODUCT ( 'cuna', 'cuna', '', ( #645 ) ) ;
#417 = DIRECTION ( 'NONE',  ( 0.000000000000000000, 0.000000000000000000, 1.000000000000000000 ) ) ;
#418 = CARTESIAN_POINT ( 'NONE',  ( -15.99999999999999645, 16.49999999999999645, -7.979274057836301282 ) ) ;
#419 = ORIENTED_EDGE ( 'NONE', *, *, #252, .T. ) ;
#420 = CALENDAR_DATE ( 2026, 2, 9 ) ;
#421 = ORGANIZATION ( 'UNSPECIFIED', 'UNSPECIFIED', '' ) ;
#422 = DIRECTION ( 'NONE',  ( 0.000000000000000000, -1.000000000000000000, -0.000000000000000000 ) ) ;
#423 = ORIENTED_EDGE ( 'NONE', *, *, #23, .T. ) ;
#424 =( NAMED_UNIT ( * ) SI_UNIT ( $, .STERADIAN. ) SOLID_ANGLE_UNIT ( ) );
#425 = CARTESIAN_POINT ( 'NONE',  ( -15.99999999999999645, 23.50000000000001066, -12.02072594216368451 ) ) ;
#426 = ORIENTED_EDGE ( 'NONE', *, *, #406, .F. ) ;
#427 = DIRECTION ( 'NONE',  ( 1.000000000000000000, 0.000000000000000000, -5.311058880651920281E-33 ) ) ;
#428 = DIRECTION ( 'NONE',  ( 1.000000000000000000, 0.000000000000000000, -0.000000000000000000 ) ) ;
#429 = ORIENTED_EDGE ( 'NONE', *, *, #367, .F. ) ;
#430 = ADVANCED_FACE ( 'NONE', ( #64 ), #292, .F. ) ;
#431 = ADVANCED_FACE ( 'NONE', ( #551 ), #289, .T. ) ;
#432 = AXIS2_PLACEMENT_3D ( 'NONE', #467, #473, #350 ) ;
#433 = AXIS2_PLACEMENT_3D ( 'NONE', #632, #138, #125 ) ;
#434 = CARTESIAN_POINT ( 'NONE',  ( -5.999999999999997335, 23.50000000000001066, -12.02072594216368451 ) ) ;
#435 = EDGE_LOOP ( 'NONE', ( #63, #318, #707, #657 ) ) ;
#436 = DIRECTION ( 'NONE',  ( 0.000000000000000000, 0.8660254037844388186, -0.4999999999999997224 ) ) ;
#437 = CARTESIAN_POINT ( 'NONE',  ( -5.999999999999998224, 23.50000000000001421, -12.02072594216367918 ) ) ;
#438 = EDGE_LOOP ( 'NONE', ( #151, #594, #705, #559 ) ) ;
#439 = EDGE_CURVE ( 'NONE', #242, #698, #665, .T. ) ;
#440 = CARTESIAN_POINT ( 'NONE',  ( -0.9999999999999974465, 40.00000000000000000, -0.3558427019233045829 ) ) ;
#441 = ORIENTED_EDGE ( 'NONE', *, *, #389, .F. ) ;
#442 = EDGE_CURVE ( 'NONE', #363, #85, #451, .T. ) ;
#443 = CARTESIAN_POINT ( 'NONE',  ( -0.9999999999999974465, 40.00000000000000000, -0.3558427019233045829 ) ) ;
#444 = APPLICATION_CONTEXT ( 'configuration controlled 3d designs of mechanical parts and assemblies' ) ;
#445 = CARTESIAN_POINT ( 'NONE',  ( -5.999999999999997335, 16.49999999999999645, -7.979274057836301282 ) ) ;
#446 = CARTESIAN_POINT ( 'NONE',  ( 0.000000000000000000, 40.00000000000000000, 0.000000000000000000 ) ) ;
#447 = VERTEX_POINT ( 'NONE', #498 ) ;
#448 = PRODUCT_DEFINITION_SHAPE ( 'NONE', 'NONE',  #49 ) ;
#449 = DIRECTION ( 'NONE',  ( 1.256336779565967701E-16, 0.000000000000000000, 1.000000000000000000 ) ) ;
#450 = DIRECTION ( 'NONE',  ( -1.000000000000000000, 0.000000000000000000, 0.000000000000000000 ) ) ;
#451 = LINE ( 'NONE', #62, #475 ) ;
#452 = VERTEX_POINT ( 'NONE', #506 ) ;
#453 = AXIS2_PLACEMENT_3D ( 'NONE', #14, #227, #123 ) ;
#454 = VECTOR ( 'NONE', #308, 1000.000000000000000 ) ;
#455 = DIRECTION ( 'NONE',  ( 0.000000000000000000, -1.000000000000000000, 0.000000000000000000 ) ) ;
#456 = ORIENTED_EDGE ( 'NONE', *, *, #692, .F. ) ;
#457 = ORIENTED_EDGE ( 'NONE', *, *, #692, .T. ) ;
#458 = PLANE ( 'NONE',  #42 ) ;
#459 = EDGE_CURVE ( 'NONE', #698, #307, #284, .T. ) ;
#460 = LINE ( 'NONE', #310, #256 ) ;
#461 = ADVANCED_FACE ( 'NONE', ( #501 ), #226, .F. ) ;
#462 = CARTESIAN_POINT ( 'NONE',  ( -3.200000000000002398, 40.00000000000000000, -20.35584270192330436 ) ) ;
#463 = DIRECTION ( 'NONE',  ( -1.000000000000000000, 0.000000000000000000, -1.807003620809173954E-17 ) ) ;
#464 = VERTEX_POINT ( 'NONE', #178 ) ;
#465 = VECTOR ( 'NONE', #630, 1000.000000000000000 ) ;
#466 = CARTESIAN_POINT ( 'NONE',  ( -0.9999999999999974465, 0.000000000000000000, -2.655529440325959730E-32 ) ) ;
#467 = CARTESIAN_POINT ( 'NONE',  ( 0.000000000000000000, 0.000000000000000000, 0.000000000000000000 ) ) ;
#468 = ORIENTED_EDGE ( 'NONE', *, *, #488, .F. ) ;
#469 = PLANE ( 'NONE',  #709 ) ;
#470 = CARTESIAN_POINT ( 'NONE',  ( -0.5000000000000004441, 40.00000000000000000, -9.999999999999998224 ) ) ;
#471 = ORIENTED_EDGE ( 'NONE', *, *, #285, .F. ) ;
#472 = DIRECTION ( 'NONE',  ( 1.000000000000000000, 0.000000000000000000, 0.000000000000000000 ) ) ;
#473 = DIRECTION ( 'NONE',  ( 0.000000000000000000, 1.000000000000000000, 0.000000000000000000 ) ) ;
#474 = ORIENTED_EDGE ( 'NONE', *, *, #364, .T. ) ;
#475 = VECTOR ( 'NONE', #671, 1000.000000000000000 ) ;
#476 = DIRECTION ( 'NONE',  ( 0.000000000000000000, -1.000000000000000000, 0.000000000000000000 ) ) ;
#477 = CARTESIAN_POINT ( 'NONE',  ( -5.999999999999996447, 0.000000000000000000, 0.000000000000000000 ) ) ;
#478 = ORIENTED_EDGE ( 'NONE', *, *, #288, .T. ) ;
#479 = EDGE_CURVE ( 'NONE', #85, #165, #109, .T. ) ;
#480 = CARTESIAN_POINT ( 'NONE',  ( -5.999999999999997335, 23.50000000000001066, -7.979274057836304834 ) ) ;
#481 = ORIENTED_EDGE ( 'NONE', *, *, #73, .F. ) ;
#482 = COORDINATED_UNIVERSAL_TIME_OFFSET ( 4, 0, .BEHIND. ) ;
#483 = DIRECTION ( 'NONE',  ( 0.000000000000000000, 0.8660254037844388186, -0.4999999999999997224 ) ) ;
#484 = PRODUCT_RELATED_PRODUCT_CATEGORY ( 'detail', '', ( #416 ) ) ;
#485 = ORIENTED_EDGE ( 'NONE', *, *, #180, .T. ) ;
#486 = COORDINATED_UNIVERSAL_TIME_OFFSET ( 4, 0, .BEHIND. ) ;
#487 = VECTOR ( 'NONE', #196, 1000.000000000000000 ) ;
#488 = EDGE_CURVE ( 'NONE', #669, #650, #59, .T. ) ;
#489 = VECTOR ( 'NONE', #92, 1000.000000000000000 ) ;
#490 = LINE ( 'NONE', #167, #106 ) ;
#491 = EDGE_LOOP ( 'NONE', ( #58, #471, #688, #441 ) ) ;
#492 = PERSON_AND_ORGANIZATION_ROLE ( 'creator' ) ;
#493 = CARTESIAN_POINT ( 'NONE',  ( -3.999999999999997335, 40.00000000000000000, -0.3558427019233042499 ) ) ;
#494 = ORIENTED_EDGE ( 'NONE', *, *, #640, .F. ) ;
#495 = EDGE_CURVE ( 'NONE', #447, #387, #548, .T. ) ;
#496 = CARTESIAN_POINT ( 'NONE',  ( -0.9999999999999974465, 40.00000000000000000, -0.3558427019233045829 ) ) ;
#497 = CARTESIAN_POINT ( 'NONE',  ( -0.5000000000000003331, 0.000000000000000000, -15.00000000000008704 ) ) ;
#498 = CARTESIAN_POINT ( 'NONE',  ( -0.9999999999999974465, 40.00000000000000000, -2.655529440325959730E-32 ) ) ;
#499 = VECTOR ( 'NONE', #572, 1000.000000000000000 ) ;
#500 = ORIENTED_EDGE ( 'NONE', *, *, #618, .T. ) ;
#501 = FACE_OUTER_BOUND ( 'NONE', #631, .T. ) ;
#502 = DIRECTION ( 'NONE',  ( -0.7071067811865439090, -0.000000000000000000, 0.7071067811865512365 ) ) ;
#503 = CARTESIAN_POINT ( 'NONE',  ( -2.500000000000000444, 40.00000000000000000, -22.00000000000000000 ) ) ;
#504 = DIRECTION ( 'NONE',  ( 0.000000000000000000, 0.000000000000000000, 1.000000000000000000 ) ) ;
#505 = APPROVAL ( #543, 'UNSPECIFIED' ) ;
#506 = CARTESIAN_POINT ( 'NONE',  ( -0.5000000000000002220, 40.00000000000000000, -19.99999999999999645 ) ) ;
#507 = ADVANCED_FACE ( 'NONE', ( #620 ), #56, .F. ) ;
#508 = ORIENTED_EDGE ( 'NONE', *, *, #288, .F. ) ;
#509 = VECTOR ( 'NONE', #272, 1000.000000000000000 ) ;
#510 = DIRECTION ( 'NONE',  ( -1.000000000000000000, 0.000000000000000000, 1.084202172485504434E-16 ) ) ;
#511 = EDGE_CURVE ( 'NONE', #549, #375, #349, .T. ) ;
#512 = DIRECTION ( 'NONE',  ( 0.000000000000000000, 0.8660254037844388186, -0.4999999999999997224 ) ) ;
#513 = APPLICATION_CONTEXT ( 'configuration controlled 3d designs of mechanical parts and assemblies' ) ;
#514 = LINE ( 'NONE', #130, #398 ) ;
#515 = CARTESIAN_POINT ( 'NONE',  ( -0.5000000000000002220, 40.00000000000000000, -22.00000000000000000 ) ) ;
#516 = VERTEX_POINT ( 'NONE', #20 ) ;
#517 = DIRECTION ( 'NONE',  ( -1.000000000000000000, 0.000000000000000000, 0.000000000000000000 ) ) ;
#518 = DIRECTION ( 'NONE',  ( 1.000000000000000000, -0.000000000000000000, -8.673617379884034239E-17 ) ) ;
#519 = ORIENTED_EDGE ( 'NONE', *, *, #254, .F. ) ;
#520 = CLOSED_SHELL ( 'NONE', ( #608, #124, #223, #309, #133, #534, #507, #352, #553, #431, #127, #359, #32, #696, #461, #183, #162, #430, #312, #103, #563 ) ) ;
#521 = DIRECTION ( 'NONE',  ( 0.000000000000000000, 0.000000000000000000, 1.000000000000000000 ) ) ;
#522 = DIRECTION ( 'NONE',  ( -1.807003620809173954E-17, 0.000000000000000000, 1.000000000000000000 ) ) ;
#523 = ORIENTED_EDGE ( 'NONE', *, *, #442, .T. ) ;
#524 = CARTESIAN_POINT ( 'NONE',  ( -2.500000000000000444, 40.00000000000000000, -19.99999999999999645 ) ) ;
#525 = FACE_OUTER_BOUND ( 'NONE', #674, .T. ) ;
#526 = VERTEX_POINT ( 'NONE', #74 ) ;
#527 = DIRECTION ( 'NONE',  ( 0.000000000000000000, 0.000000000000000000, -1.000000000000000000 ) ) ;
#528 = DIRECTION ( 'NONE',  ( -1.000000000000000000, 0.000000000000000000, 2.602085213965210642E-16 ) ) ;
#529 = ORIENTED_EDGE ( 'NONE', *, *, #224, .T. ) ;
#530 = AXIS2_PLACEMENT_3D ( 'NONE', #79, #463, #522 ) ;
#531 = EDGE_CURVE ( 'NONE', #165, #47, #31, .T. ) ;
#532 =( LENGTH_UNIT ( ) NAMED_UNIT ( * ) SI_UNIT ( .MILLI., .METRE. ) );
#533 = LINE ( 'NONE', #493, #316 ) ;
#534 = ADVANCED_FACE ( 'NONE', ( #304 ), #297, .F. ) ;
#535 = VERTEX_POINT ( 'NONE', #181 ) ;
#536 = CARTESIAN_POINT ( 'NONE',  ( -5.999999999999996447, 40.00000000000000000, 0.000000000000000000 ) ) ;
#537 = PLANE ( 'NONE',  #708 ) ;
#538 = EDGE_LOOP ( 'NONE', ( #197, #260, #34, #474 ) ) ;
#539 = EDGE_CURVE ( 'NONE', #302, #676, #353, .T. ) ;
#540 = PERSON_AND_ORGANIZATION ( #160, #421 ) ;
#541 = FACE_OUTER_BOUND ( 'NONE', #290, .T. ) ;
#542 = ORIENTED_EDGE ( 'NONE', *, *, #560, .F. ) ;
#543 = APPROVAL_STATUS ( 'not_yet_approved' ) ;
#544 = AXIS2_PLACEMENT_3D ( 'NONE', #566, #617, #504 ) ;
#545 = LOCAL_TIME ( 15, 50, 0.000000000000000000, #550 ) ;
#546 = LINE ( 'NONE', #210, #555 ) ;
#547 = VERTEX_POINT ( 'NONE', #69 ) ;
#548 = LINE ( 'NONE', #112, #372 ) ;
#549 = VERTEX_POINT ( 'NONE', #361 ) ;
#550 = COORDINATED_UNIVERSAL_TIME_OFFSET ( 4, 0, .BEHIND. ) ;
#551 = FACE_OUTER_BOUND ( 'NONE', #236, .T. ) ;
#552 = DIRECTION ( 'NONE',  ( 0.000000000000000000, 0.000000000000000000, 1.000000000000000000 ) ) ;
#553 = ADVANCED_FACE ( 'NONE', ( #579 ), #458, .F. ) ;
#554 = CARTESIAN_POINT ( 'NONE',  ( -3.200000000000002398, 40.00000000000000000, -20.35584270192330436 ) ) ;
#555 = VECTOR ( 'NONE', #214, 1000.000000000000114 ) ;
#556 = VERTEX_POINT ( 'NONE', #81 ) ;
#557 = LINE ( 'NONE', #218, #68 ) ;
#558 = CC_DESIGN_PERSON_AND_ORGANIZATION_ASSIGNMENT ( #158, #376, ( #49 ) ) ;
#559 = ORIENTED_EDGE ( 'NONE', *, *, #511, .T. ) ;
#560 = EDGE_CURVE ( 'NONE', #387, #351, #86, .T. ) ;
#561 = DIRECTION ( 'NONE',  ( 0.000000000000000000, 1.000000000000000000, 0.000000000000000000 ) ) ;
#562 = CARTESIAN_POINT ( 'NONE',  ( -5.999999999999998224, 20.00000000000000000, -14.04145188432738145 ) ) ;
#563 = ADVANCED_FACE ( 'NONE', ( #412 ), #240, .T. ) ;
#564 = CARTESIAN_POINT ( 'NONE',  ( -15.99999999999999645, 20.00000000000000000, -5.958548115672609669 ) ) ;
#565 = VECTOR ( 'NONE', #345, 1000.000000000000000 ) ;
#566 = CARTESIAN_POINT ( 'NONE',  ( -4.000000000000000000, 0.000000000000000000, -19.99999999999999645 ) ) ;
#567 = APPROVAL_PERSON_ORGANIZATION ( #163, #505, #701 ) ;
#568 = CARTESIAN_POINT ( 'NONE',  ( -4.000000000000002665, 40.00000000000000000, -20.35584270192330436 ) ) ;
#569 = CARTESIAN_POINT ( 'NONE',  ( -0.9999999999999974465, 0.000000000000000000, -2.655529440325959730E-32 ) ) ;
#570 = EDGE_LOOP ( 'NONE', ( #19, #597, #457, #205, #269, #217 ) ) ;
#571 = DIRECTION ( 'NONE',  ( 0.000000000000000000, 0.000000000000000000, -1.000000000000000000 ) ) ;
#572 = DIRECTION ( 'NONE',  ( -1.000000000000000000, 0.000000000000000000, 0.000000000000000000 ) ) ;
#573 = ORIENTED_EDGE ( 'NONE', *, *, #495, .F. ) ;
#574 = CARTESIAN_POINT ( 'NONE',  ( -6.000000000000000000, 40.00000000000000000, -22.00000000000000000 ) ) ;
#575 = CARTESIAN_POINT ( 'NONE',  ( -6.000000000000000000, 0.000000000000000000, -22.00000000000000000 ) ) ;
#576 = ORIENTED_EDGE ( 'NONE', *, *, #488, .T. ) ;
#577 = AXIS2_PLACEMENT_3D ( 'NONE', #713, #528, #39 ) ;
#578 = CC_DESIGN_APPROVAL ( #505, ( #117 ) ) ;
#579 = FACE_OUTER_BOUND ( 'NONE', #145, .T. ) ;
#580 = DIRECTION ( 'NONE',  ( 0.000000000000000000, 1.000000000000000000, -0.000000000000000000 ) ) ;
#581 = ORIENTED_EDGE ( 'NONE', *, *, #479, .F. ) ;
#582 = CARTESIAN_POINT ( 'NONE',  ( -3.200000000000002398, 0.000000000000000000, -20.35584270192330436 ) ) ;
#583 = DIRECTION ( 'NONE',  ( 1.000000000000000000, 0.000000000000000000, 0.000000000000000000 ) ) ;
#584 = EDGE_LOOP ( 'NONE', ( #102, #116, #105, #415 ) ) ;
#585 = EDGE_CURVE ( 'NONE', #452, #516, #84, .T. ) ;
#586 = LINE ( 'NONE', #315, #388 ) ;
#587 = EDGE_CURVE ( 'NONE', #110, #464, #135, .T. ) ;
#588 = FACE_OUTER_BOUND ( 'NONE', #382, .T. ) ;
#589 = ORIENTED_EDGE ( 'NONE', *, *, #203, .T. ) ;
#590 = AXIS2_PLACEMENT_3D ( 'NONE', #264, #323, #428 ) ;
#591 = LOCAL_TIME ( 15, 50, 0.000000000000000000, #486 ) ;
#592 = APPLICATION_PROTOCOL_DEFINITION ( 'international standard', 'config_control_design', 1994, #513 ) ;
#593 = LINE ( 'NONE', #46, #187 ) ;
#594 = ORIENTED_EDGE ( 'NONE', *, *, #128, .F. ) ;
#595 = LINE ( 'NONE', #322, #489 ) ;
#596 = DIRECTION ( 'NONE',  ( -0.000000000000000000, -1.000000000000000000, -0.000000000000000000 ) ) ;
#597 = ORIENTED_EDGE ( 'NONE', *, *, #331, .T. ) ;
#598 = CYLINDRICAL_SURFACE ( 'NONE', #328, 2.000000000000001776 ) ;
#599 = CARTESIAN_POINT ( 'NONE',  ( -3.200000000000001510, 0.000000000000000000, -12.30000000000005755 ) ) ;
#600 = ORIENTED_EDGE ( 'NONE', *, *, #3, .T. ) ;
#601 = APPROVAL_ROLE ( '' ) ;
#602 = VECTOR ( 'NONE', #171, 1000.000000000000227 ) ;
#603 = DIRECTION ( 'NONE',  ( 0.000000000000000000, 0.8660254037844387076, 0.4999999999999997780 ) ) ;
#604 = ORIENTED_EDGE ( 'NONE', *, *, #259, .T. ) ;
#605 = PERSON_AND_ORGANIZATION_ROLE ( 'design_supplier' ) ;
#606 = DIRECTION ( 'NONE',  ( 1.807003620809173954E-17, 0.000000000000000000, -1.000000000000000000 ) ) ;
#607 = DIRECTION ( 'NONE',  ( 0.000000000000000000, 0.000000000000000000, 1.000000000000000000 ) ) ;
#608 = ADVANCED_FACE ( 'NONE', ( #26, #409 ), #469, .F. ) ;
#609 = CARTESIAN_POINT ( 'NONE',  ( -5.999999999999996447, 0.000000000000000000, 0.000000000000000000 ) ) ;
#610 = ORIENTED_EDGE ( 'NONE', *, *, #235, .F. ) ;
#611 = EDGE_CURVE ( 'NONE', #447, #110, #514, .T. ) ;
#612 = EDGE_LOOP ( 'NONE', ( #481, #208, #581, #334, #186, #666 ) ) ;
#613 = CC_DESIGN_DATE_AND_TIME_ASSIGNMENT ( #710, #655, ( #49 ) ) ;
#614 = CARTESIAN_POINT ( 'NONE',  ( -15.99999999999999645, 23.50000000000001066, -7.979274057836304834 ) ) ;
#615 = VECTOR ( 'NONE', #306, 1000.000000000000000 ) ;
#616 = VECTOR ( 'NONE', #247, 1000.000000000000000 ) ;
#617 = DIRECTION ( 'NONE',  ( -0.000000000000000000, -1.000000000000000000, -0.000000000000000000 ) ) ;
#618 = EDGE_CURVE ( 'NONE', #242, #526, #195, .T. ) ;
#619 = PERSON_AND_ORGANIZATION ( #160, #421 ) ;
#620 = FACE_OUTER_BOUND ( 'NONE', #140, .T. ) ;
#621 = VERTEX_POINT ( 'NONE', #680 ) ;
#622 = LINE ( 'NONE', #686, #9 ) ;
#623 = ORIENTED_EDGE ( 'NONE', *, *, #97, .T. ) ;
#624 = DIRECTION ( 'NONE',  ( -1.577021341797097560E-16, 0.000000000000000000, -1.000000000000000000 ) ) ;
#625 = VECTOR ( 'NONE', #164, 1000.000000000000227 ) ;
#626 = PLANE ( 'NONE',  #142 ) ;
#627 = CC_DESIGN_APPROVAL ( #122, ( #49 ) ) ;
#628 = ORIENTED_EDGE ( 'NONE', *, *, #560, .T. ) ;
#629 = CARTESIAN_POINT ( 'NONE',  ( -5.999999999999997335, 16.49999999999999645, -12.02072594216368628 ) ) ;
#630 = DIRECTION ( 'NONE',  ( 1.000000000000000000, -0.000000000000000000, -8.673617379884034239E-17 ) ) ;
#631 = EDGE_LOOP ( 'NONE', ( #41, #77, #643, #623 ) ) ;
#632 = CARTESIAN_POINT ( 'NONE',  ( -2.500000000000000444, 0.000000000000000000, -19.99999999999999645 ) ) ;
#633 = CARTESIAN_POINT ( 'NONE',  ( -4.000000000000002665, 40.00000000000000000, -20.35584270192330436 ) ) ;
#634 = EDGE_LOOP ( 'NONE', ( #576, #703, #368, #100 ) ) ;
#635 = CC_DESIGN_DATE_AND_TIME_ASSIGNMENT ( #670, #114, ( #177 ) ) ;
#636 = DIRECTION ( 'NONE',  ( -0.000000000000000000, -1.000000000000000000, -0.000000000000000000 ) ) ;
#637 = DIRECTION ( 'NONE',  ( -1.000000000000000000, 0.000000000000000000, 5.311058880651920281E-33 ) ) ;
#638 = ORIENTED_EDGE ( 'NONE', *, *, #278, .F. ) ;
#639 = VECTOR ( 'NONE', #649, 1000.000000000000000 ) ;
#640 = EDGE_CURVE ( 'NONE', #191, #535, #78, .T. ) ;
#641 = CARTESIAN_POINT ( 'NONE',  ( -5.999999999999997335, 20.00000000000000000, -5.958548115672610557 ) ) ;
#642 = DIRECTION ( 'NONE',  ( -0.000000000000000000, 1.000000000000000000, -0.000000000000000000 ) ) ;
#643 = ORIENTED_EDGE ( 'NONE', *, *, #283, .F. ) ;
#644 = EDGE_CURVE ( 'NONE', #201, #242, #622, .T. ) ;
#645 = MECHANICAL_CONTEXT ( 'NONE', #444, 'mechanical' ) ;
#646 = DIRECTION ( 'NONE',  ( 1.000000000000000000, -0.000000000000000000, -8.673617379884034239E-17 ) ) ;
#647 = EDGE_LOOP ( 'NONE', ( #91, #519, #45, #429 ) ) ;
#648 = PERSON_AND_ORGANIZATION ( #160, #421 ) ;
#649 = DIRECTION ( 'NONE',  ( 0.000000000000000000, -0.8660254037844387076, -0.4999999999999998890 ) ) ;
#650 = VERTEX_POINT ( 'NONE', #192 ) ;
#651 = VECTOR ( 'NONE', #450, 1000.000000000000000 ) ;
#652 = APPROVAL_DATE_TIME ( #319, #122 ) ;
#653 = CARTESIAN_POINT ( 'NONE',  ( -6.000000000000000000, 40.00000000000000000, -19.99999999999999645 ) ) ;
#654 = ORIENTED_EDGE ( 'NONE', *, *, #75, .F. ) ;
#655 = DATE_TIME_ROLE ( 'creation_date' ) ;
#656 = CARTESIAN_POINT ( 'NONE',  ( -4.000000000000000000, 40.00000000000000000, -22.00000000000000000 ) ) ;
#657 = ORIENTED_EDGE ( 'NONE', *, *, #383, .T. ) ;
#658 = DIRECTION ( 'NONE',  ( 0.7071067811865439090, -0.000000000000000000, -0.7071067811865512365 ) ) ;
#659 = ORIENTED_EDGE ( 'NONE', *, *, #587, .F. ) ;
#660 = VECTOR ( 'NONE', #400, 1000.000000000000114 ) ;
#661 = DIRECTION ( 'NONE',  ( -7.511572993685797621E-17, 0.4999999999999998335, -0.8660254037844388186 ) ) ;
#662 = EDGE_CURVE ( 'NONE', #95, #650, #71, .T. ) ;
#663 = CARTESIAN_POINT ( 'NONE',  ( -15.99999999999999645, 16.49999999999999645, -12.02072594216368628 ) ) ;
#664 = EDGE_CURVE ( 'NONE', #375, #273, #346, .T. ) ;
#665 = LINE ( 'NONE', #554, #672 ) ;
#666 = ORIENTED_EDGE ( 'NONE', *, *, #664, .F. ) ;
#667 = DIRECTION ( 'NONE',  ( 1.000000000000000000, 0.000000000000000000, -5.311058880651920281E-33 ) ) ;
#668 = EDGE_CURVE ( 'NONE', #676, #447, #379, .T. ) ;
#669 = VERTEX_POINT ( 'NONE', #271 ) ;
#670 = DATE_AND_TIME ( #2, #545 ) ;
#671 = DIRECTION ( 'NONE',  ( 1.000000000000000000, -0.000000000000000000, -8.673617379884034239E-17 ) ) ;
#672 = VECTOR ( 'NONE', #66, 1000.000000000000000 ) ;
#673 = APPROVAL_PERSON_ORGANIZATION ( #540, #122, #98 ) ;
#674 = EDGE_LOOP ( 'NONE', ( #126, #485, #134, #314 ) ) ;
#675 = LINE ( 'NONE', #384, #281 ) ;
#676 = VERTEX_POINT ( 'NONE', #89 ) ;
#677 = CARTESIAN_POINT ( 'NONE',  ( -0.9999999999999974465, 40.00000000000000000, -0.3558427019233045829 ) ) ;
#678 = LINE ( 'NONE', #575, #615 ) ;
#679 = EDGE_LOOP ( 'NONE', ( #249, #263, #327, #604 ) ) ;
#680 = CARTESIAN_POINT ( 'NONE',  ( -4.000000000000000000, 40.00000000000000000, -22.00000000000000000 ) ) ;
#681 = DESIGN_CONTEXT ( 'detailed design', #513, 'design' ) ;
#682 = VECTOR ( 'NONE', #449, 1000.000000000000000 ) ;
#683 = CARTESIAN_POINT ( 'NONE',  ( -5.999999999999998224, 16.49999999999999645, -12.02072594216368628 ) ) ;
#684 = EDGE_CURVE ( 'NONE', #237, #363, #595, .T. ) ;
#685 = EDGE_LOOP ( 'NONE', ( #403, #610, #573, #358 ) ) ;
#686 = CARTESIAN_POINT ( 'NONE',  ( -4.000000000000002665, 40.00000000000000000, -20.35584270192330436 ) ) ;
#687 = FACE_OUTER_BOUND ( 'NONE', #148, .T. ) ;
#688 = ORIENTED_EDGE ( 'NONE', *, *, #3, .F. ) ;
#689 = CC_DESIGN_PERSON_AND_ORGANIZATION_ASSIGNMENT ( #274, #492, ( #117 ) ) ;
#690 = CARTESIAN_POINT ( 'NONE',  ( -6.000000000000000000, 40.00000000000000000, -22.00000000000000000 ) ) ;
#691 = DIRECTION ( 'NONE',  ( 0.000000000000000000, 0.000000000000000000, -1.000000000000000000 ) ) ;
#692 = EDGE_CURVE ( 'NONE', #370, #237, #586, .T. ) ;
#693 = ORIENTED_EDGE ( 'NONE', *, *, #644, .F. ) ;
#694 = DIRECTION ( 'NONE',  ( 0.000000000000000000, 0.000000000000000000, 1.000000000000000000 ) ) ;
#695 = LINE ( 'NONE', #354, #220 ) ;
#696 = ADVANCED_FACE ( 'NONE', ( #38 ), #598, .T. ) ;
#697 = AXIS2_PLACEMENT_3D ( 'NONE', #241, #422, #691 ) ;
#698 = VERTEX_POINT ( 'NONE', #582 ) ;
#699 = CIRCLE ( 'NONE', #337, 2.000000000000001776 ) ;
#700 = AXIS2_PLACEMENT_3D ( 'NONE', #35, #250, #417 ) ;
#701 = APPROVAL_ROLE ( '' ) ;
#702 = PLANE ( 'NONE',  #348 ) ;
#703 = ORIENTED_EDGE ( 'NONE', *, *, #254, .T. ) ;
#704 = DIRECTION ( 'NONE',  ( -0.000000000000000000, 1.000000000000000000, -0.000000000000000000 ) ) ;
#705 = ORIENTED_EDGE ( 'NONE', *, *, #331, .F. ) ;
#706 = DIRECTION ( 'NONE',  ( 0.000000000000000000, -1.000000000000000000, 0.000000000000000000 ) ) ;
#707 = ORIENTED_EDGE ( 'NONE', *, *, #333, .F. ) ;
#708 = AXIS2_PLACEMENT_3D ( 'NONE', #93, #99, #325 ) ;
#709 = AXIS2_PLACEMENT_3D ( 'NONE', #690, #188, #624 ) ;
#710 = DATE_AND_TIME ( #420, #591 ) ;
#711 = LINE ( 'NONE', #54, #360 ) ;
#712 = EDGE_LOOP ( 'NONE', ( #194, #113, #589, #50 ) ) ;
#713 = CARTESIAN_POINT ( 'NONE',  ( -3.999999999999997335, 40.00000000000000000, -0.3558427019233042499 ) ) ;
ENDSEC;
END-ISO-10303-21;
