ISO-10303-21;
HEADER;
FILE_DESCRIPTION (( 'STEP AP203' ),
    '1' );
FILE_NAME ('panel-solar-100w.step',
    '2026-09-02T19:49:02',
    ( '' ),
    ( '' ),
    'SwSTEP 2.0',
    'SolidWorks 2025',
    '' );
FILE_SCHEMA (( 'CONFIG_CONTROL_DESIGN' ));
ENDSEC;

DATA;
#1 = LINE ( 'NONE', #529, #592 ) ;
#2 = ADVANCED_FACE ( 'NONE', ( #614 ), #200, .F. ) ;
#3 = VECTOR ( 'NONE', #118, 1000.000000000000000 ) ;
#4 = ORIENTED_EDGE ( 'NONE', *, *, #507, .F. ) ;
#5 = AXIS2_PLACEMENT_3D ( 'NONE', #12, #618, #484 ) ;
#6 = EDGE_CURVE ( 'NONE', #496, #46, #131, .T. ) ;
#7 = DATE_TIME_ROLE ( 'creation_date' ) ;
#8 = DATE_AND_TIME ( #542, #163 ) ;
#9 = DIRECTION ( 'NONE',  ( 1.734723475976807094E-16, -1.000000000000000000, 0.000000000000000000 ) ) ;
#10 = ORIENTED_EDGE ( 'NONE', *, *, #275, .T. ) ;
#11 = LINE ( 'NONE', #589, #405 ) ;
#12 = CARTESIAN_POINT ( 'NONE',  ( -360.0000000000000568, 338.4999999999998863, 24.50000000000000355 ) ) ;
#13 = ORIENTED_EDGE ( 'NONE', *, *, #507, .T. ) ;
#14 = DIRECTION ( 'NONE',  ( -1.632680918566406793E-16, 1.000000000000000000, 0.000000000000000000 ) ) ;
#15 = CARTESIAN_POINT ( 'NONE',  ( 215.0000000000000284, -329.5000000000001137, 24.50000000000000000 ) ) ;
#16 = VECTOR ( 'NONE', #86, 1000.000000000000000 ) ;
#17 = CIRCLE ( 'NONE', #530, 3.000000000000002665 ) ;
#18 = VECTOR ( 'NONE', #455, 1000.000000000000000 ) ;
#19 =( NAMED_UNIT ( * ) PLANE_ANGLE_UNIT ( ) SI_UNIT ( $, .RADIAN. ) );
#20 = ORIENTED_EDGE ( 'NONE', *, *, #132, .T. ) ;
#21 = DIRECTION ( 'NONE',  ( -1.000000000000000000, -0.000000000000000000, -0.000000000000000000 ) ) ;
#22 = DIRECTION ( 'NONE',  ( -0.000000000000000000, -0.000000000000000000, 1.000000000000000000 ) ) ;
#23 = FACE_OUTER_BOUND ( 'NONE', #692, .T. ) ;
#24 = DIRECTION ( 'NONE',  ( 0.000000000000000000, 0.000000000000000000, 1.000000000000000000 ) ) ;
#25 = ORIENTED_EDGE ( 'NONE', *, *, #661, .T. ) ;
#26 = CARTESIAN_POINT ( 'NONE',  ( -218.0000000000000284, -329.5000000000001137, 24.50000000000000000 ) ) ;
#27 = ADVANCED_FACE ( 'NONE', ( #190, #723, #425 ), #311, .F. ) ;
#28 = ORIENTED_EDGE ( 'NONE', *, *, #391, .F. ) ;
#29 = DIRECTION ( 'NONE',  ( -0.000000000000000000, -0.000000000000000000, -1.000000000000000000 ) ) ;
#30 = EDGE_LOOP ( 'NONE', ( #754, #435, #104, #382 ) ) ;
#31 = DATE_AND_TIME ( #38, #49 ) ;
#32 = VERTEX_POINT ( 'NONE', #490 ) ;
#33 = CYLINDRICAL_SURFACE ( 'NONE', #120, 3.000000000000002665 ) ;
#34 = ORIENTED_EDGE ( 'NONE', *, *, #359, .F. ) ;
#35 = ADVANCED_FACE ( 'NONE', ( #197 ), #373, .F. ) ;
#36 = EDGE_CURVE ( 'NONE', #338, #129, #142, .T. ) ;
#37 = VECTOR ( 'NONE', #428, 1000.000000000000000 ) ;
#38 = CALENDAR_DATE ( 2026, 2, 9 ) ;
#39 = ORIENTED_EDGE ( 'NONE', *, *, #578, .T. ) ;
#40 = DIRECTION ( 'NONE',  ( -0.000000000000000000, -0.000000000000000000, 1.000000000000000000 ) ) ;
#41 = ORIENTED_EDGE ( 'NONE', *, *, #563, .F. ) ;
#42 = DIRECTION ( 'NONE',  ( 0.000000000000000000, -0.000000000000000000, -1.000000000000000000 ) ) ;
#43 = VERTEX_POINT ( 'NONE', #407 ) ;
#44 = LINE ( 'NONE', #452, #171 ) ;
#45 = ORIENTED_EDGE ( 'NONE', *, *, #337, .T. ) ;
#46 = VERTEX_POINT ( 'NONE', #534 ) ;
#47 = LINE ( 'NONE', #280, #101 ) ;
#48 = AXIS2_PLACEMENT_3D ( 'NONE', #416, #348, #52 ) ;
#49 = LOCAL_TIME ( 15, 49, 2.000000000000000000, #213 ) ;
#50 = DIRECTION ( 'NONE',  ( -0.000000000000000000, -0.000000000000000000, 1.000000000000000000 ) ) ;
#51 = EDGE_CURVE ( 'NONE', #216, #580, #133, .T. ) ;
#52 = DIRECTION ( 'NONE',  ( 8.163404592832033966E-17, -1.000000000000000000, 0.000000000000000000 ) ) ;
#53 = CARTESIAN_POINT ( 'NONE',  ( 359.9999999999999432, 338.4999999999998863, 6.500000000000002665 ) ) ;
#54 = ADVANCED_FACE ( 'NONE', ( #123 ), #550, .F. ) ;
#55 = CARTESIAN_POINT ( 'NONE',  ( 360.0000000000000568, -320.0000000000001137, 25.00000000000000000 ) ) ;
#56 = EDGE_CURVE ( 'NONE', #389, #565, #17, .T. ) ;
#57 = CARTESIAN_POINT ( 'NONE',  ( -379.9999999999998863, -340.0000000000000568, 25.00000000000000000 ) ) ;
#58 = VECTOR ( 'NONE', #752, 1000.000000000000000 ) ;
#59 = VECTOR ( 'NONE', #717, 1000.000000000000000 ) ;
#60 = CARTESIAN_POINT ( 'NONE',  ( -360.0000000000000568, 319.9999999999998863, 25.00000000000000000 ) ) ;
#61 = DIRECTION ( 'NONE',  ( -0.000000000000000000, -0.000000000000000000, 1.000000000000000000 ) ) ;
#62 = CARTESIAN_POINT ( 'NONE',  ( -380.0000000000000000, 339.9999999999999432, 25.00000000000000000 ) ) ;
#63 = CARTESIAN_POINT ( 'NONE',  ( 379.7394020339337999, -320.0000000000001137, 24.50000000000000000 ) ) ;
#64 = CARTESIAN_POINT ( 'NONE',  ( 0.000000000000000000, 0.000000000000000000, 25.00000000000000000 ) ) ;
#65 = VECTOR ( 'NONE', #226, 1000.000000000000000 ) ;
#66 = ORIENTED_EDGE ( 'NONE', *, *, #469, .F. ) ;
#67 = AXIS2_PLACEMENT_3D ( 'NONE', #194, #738, #552 ) ;
#68 = COORDINATED_UNIVERSAL_TIME_OFFSET ( 4, 0, .BEHIND. ) ;
#69 = PLANE ( 'NONE',  #192 ) ;
#70 = PLANE ( 'NONE',  #345 ) ;
#71 = EDGE_LOOP ( 'NONE', ( #451, #556, #384, #85 ) ) ;
#72 = CARTESIAN_POINT ( 'NONE',  ( -380.0000000000000000, 339.9999999999999432, 25.00000000000000000 ) ) ;
#73 = DIRECTION ( 'NONE',  ( -0.000000000000000000, -0.000000000000000000, 1.000000000000000000 ) ) ;
#74 = ADVANCED_FACE ( 'NONE', ( #712 ), #357, .F. ) ;
#75 = LINE ( 'NONE', #313, #237 ) ;
#76 = ORIENTED_EDGE ( 'NONE', *, *, #467, .T. ) ;
#77 = FACE_OUTER_BOUND ( 'NONE', #220, .T. ) ;
#78 = DIRECTION ( 'NONE',  ( -0.000000000000000000, 1.000000000000000000, -0.000000000000000000 ) ) ;
#79 = AXIS2_PLACEMENT_3D ( 'NONE', #707, #111, #370 ) ;
#80 = VECTOR ( 'NONE', #356, 1000.000000000000000 ) ;
#81 = CC_DESIGN_PERSON_AND_ORGANIZATION_ASSIGNMENT ( #682, #304, ( #278 ) ) ;
#82 =( NAMED_UNIT ( * ) SI_UNIT ( $, .STERADIAN. ) SOLID_ANGLE_UNIT ( ) );
#83 = VERTEX_POINT ( 'NONE', #60 ) ;
#84 = CARTESIAN_POINT ( 'NONE',  ( -359.9999999999999432, -320.0000000000001137, 25.00000000000000000 ) ) ;
#85 = ORIENTED_EDGE ( 'NONE', *, *, #191, .T. ) ;
#86 = DIRECTION ( 'NONE',  ( -1.000000000000000000, -0.000000000000000000, -0.000000000000000000 ) ) ;
#87 = EDGE_LOOP ( 'NONE', ( #701, #307 ) ) ;
#88 = ADVANCED_BREP_SHAPE_REPRESENTATION ( 'panel-solar-100w', ( #336, #727 ), #254 ) ;
#89 = APPROVAL_DATE_TIME ( #602, #600 ) ;
#90 = ORIENTED_EDGE ( 'NONE', *, *, #657, .T. ) ;
#91 = CARTESIAN_POINT ( 'NONE',  ( 218.0000000000000284, -329.5000000000001137, 25.00000000000000000 ) ) ;
#92 = ADVANCED_FACE ( 'NONE', ( #234 ), #295, .F. ) ;
#93 = ORIENTED_EDGE ( 'NONE', *, *, #51, .F. ) ;
#94 = CARTESIAN_POINT ( 'NONE',  ( 359.9999999999999432, 338.4999999999998863, 24.50000000000000000 ) ) ;
#95 = ORIENTED_EDGE ( 'NONE', *, *, #660, .F. ) ;
#96 = LINE ( 'NONE', #400, #397 ) ;
#97 = ORIENTED_EDGE ( 'NONE', *, *, #36, .T. ) ;
#98 = AXIS2_PLACEMENT_3D ( 'NONE', #691, #603, #615 ) ;
#99 = PERSON_AND_ORGANIZATION_ROLE ( 'classification_officer' ) ;
#100 = FACE_OUTER_BOUND ( 'NONE', #195, .T. ) ;
#101 = VECTOR ( 'NONE', #218, 1000.000000000000000 ) ;
#102 = VERTEX_POINT ( 'NONE', #179 ) ;
#103 = LINE ( 'NONE', #105, #272 ) ;
#104 = ORIENTED_EDGE ( 'NONE', *, *, #113, .F. ) ;
#105 = CARTESIAN_POINT ( 'NONE',  ( -379.9999999999998863, -340.0000000000000568, 25.00000000000000000 ) ) ;
#106 = VERTEX_POINT ( 'NONE', #772 ) ;
#107 = LINE ( 'NONE', #704, #423 ) ;
#108 = EDGE_CURVE ( 'NONE', #569, #636, #649, .T. ) ;
#109 = AXIS2_PLACEMENT_3D ( 'NONE', #206, #667, #130 ) ;
#110 = AXIS2_PLACEMENT_3D ( 'NONE', #175, #351, #658 ) ;
#111 = DIRECTION ( 'NONE',  ( -0.000000000000000000, 0.000000000000000000, 1.000000000000000000 ) ) ;
#112 = DIRECTION ( 'NONE',  ( 0.000000000000000000, -0.000000000000000000, -1.000000000000000000 ) ) ;
#113 = EDGE_CURVE ( 'NONE', #624, #445, #655, .T. ) ;
#114 = EDGE_CURVE ( 'NONE', #573, #32, #312, .T. ) ;
#115 = EDGE_CURVE ( 'NONE', #522, #624, #11, .T. ) ;
#116 = DIRECTION ( 'NONE',  ( -0.000000000000000000, -0.000000000000000000, -1.000000000000000000 ) ) ;
#117 = CARTESIAN_POINT ( 'NONE',  ( -379.1892190745223274, -338.5000000000001137, 6.500000000000002665 ) ) ;
#118 = DIRECTION ( 'NONE',  ( 1.000000000000000000, 0.000000000000000000, 0.000000000000000000 ) ) ;
#119 = CARTESIAN_POINT ( 'NONE',  ( 380.0000000000000568, 339.9999999999999432, 25.00000000000000000 ) ) ;
#120 = AXIS2_PLACEMENT_3D ( 'NONE', #141, #566, #377 ) ;
#121 = AXIS2_PLACEMENT_3D ( 'NONE', #755, #390, #581 ) ;
#122 = VECTOR ( 'NONE', #414, 1000.000000000000000 ) ;
#123 = FACE_OUTER_BOUND ( 'NONE', #622, .T. ) ;
#124 = DIRECTION ( 'NONE',  ( 1.000000000000000000, -0.000000000000000000, -0.000000000000000000 ) ) ;
#125 = VERTEX_POINT ( 'NONE', #15 ) ;
#126 = LINE ( 'NONE', #231, #59 ) ;
#127 = DIRECTION ( 'NONE',  ( 1.000000000000000000, 0.000000000000000000, 0.000000000000000000 ) ) ;
#128 = CLOSED_SHELL ( 'NONE', ( #334, #2, #92, #545, #430, #586, #646, #74, #352, #54, #219, #270, #393, #35, #526, #753, #286, #750, #642, #27, #528, #238, #412 ) ) ;
#129 = VERTEX_POINT ( 'NONE', #55 ) ;
#130 = DIRECTION ( 'NONE',  ( 0.000000000000000000, -0.000000000000000000, -1.000000000000000000 ) ) ;
#131 = LINE ( 'NONE', #251, #571 ) ;
#132 = EDGE_CURVE ( 'NONE', #724, #129, #297, .T. ) ;
#133 = LINE ( 'NONE', #587, #415 ) ;
#134 = APPROVAL_STATUS ( 'not_yet_approved' ) ;
#135 = ORIENTED_EDGE ( 'NONE', *, *, #115, .T. ) ;
#136 = CARTESIAN_POINT ( 'NONE',  ( 359.9999999999999432, 338.4999999999998863, 6.500000000000002665 ) ) ;
#137 = CARTESIAN_POINT ( 'NONE',  ( 379.7394020339337999, -338.5000000000001137, 24.50000000000000000 ) ) ;
#138 = CARTESIAN_POINT ( 'NONE',  ( 379.7394020339337430, -338.5000000000001137, 6.500000000000002665 ) ) ;
#139 = PERSON_AND_ORGANIZATION ( #574, #768 ) ;
#140 = ORIENTED_EDGE ( 'NONE', *, *, #488, .T. ) ;
#141 = CARTESIAN_POINT ( 'NONE',  ( -215.0000000000000284, -329.5000000000001137, 6.500000000000002665 ) ) ;
#142 = LINE ( 'NONE', #544, #355 ) ;
#143 = ORIENTED_EDGE ( 'NONE', *, *, #444, .F. ) ;
#144 = CARTESIAN_POINT ( 'NONE',  ( -380.0000000000000000, 339.9999999999999432, 0.000000000000000000 ) ) ;
#145 = AXIS2_PLACEMENT_3D ( 'NONE', #629, #374, #502 ) ;
#146 = APPROVAL_PERSON_ORGANIZATION ( #266, #178, #514 ) ;
#147 = EDGE_CURVE ( 'NONE', #445, #573, #765, .T. ) ;
#148 = DIRECTION ( 'NONE',  ( 1.000000000000000000, 0.000000000000000000, 0.000000000000000000 ) ) ;
#149 = ORIENTED_EDGE ( 'NONE', *, *, #147, .F. ) ;
#150 = DIRECTION ( 'NONE',  ( 0.000000000000000000, 0.000000000000000000, 1.000000000000000000 ) ) ;
#151 = EDGE_LOOP ( 'NONE', ( #76, #25, #639, #741 ) ) ;
#152 = EDGE_CURVE ( 'NONE', #433, #83, #255, .T. ) ;
#153 = LINE ( 'NONE', #387, #662 ) ;
#154 = EDGE_LOOP ( 'NONE', ( #491, #376, #274, #159 ) ) ;
#155 = ORIENTED_EDGE ( 'NONE', *, *, #501, .F. ) ;
#156 = FACE_OUTER_BOUND ( 'NONE', #151, .T. ) ;
#157 = VERTEX_POINT ( 'NONE', #62 ) ;
#158 = DIRECTION ( 'NONE',  ( -8.163404592832032733E-17, 1.000000000000000000, -0.000000000000000000 ) ) ;
#159 = ORIENTED_EDGE ( 'NONE', *, *, #244, .T. ) ;
#160 = PRODUCT_DEFINITION_SHAPE ( 'NONE', 'NONE',  #714 ) ;
#161 = VECTOR ( 'NONE', #318, 1000.000000000000000 ) ;
#162 = CARTESIAN_POINT ( 'NONE',  ( 379.7394020339337430, -320.0000000000001137, 6.500000000000002665 ) ) ;
#163 = LOCAL_TIME ( 15, 49, 2.000000000000000000, #68 ) ;
#164 = VERTEX_POINT ( 'NONE', #247 ) ;
#165 = CARTESIAN_POINT ( 'NONE',  ( -379.1892190745223274, -338.5000000000001137, 24.50000000000000000 ) ) ;
#166 = APPROVAL ( #432, 'UNSPECIFIED' ) ;
#167 = DIRECTION ( 'NONE',  ( -1.000000000000000000, -0.000000000000000000, -0.000000000000000000 ) ) ;
#168 = APPLICATION_CONTEXT ( 'configuration controlled 3d designs of mechanical parts and assemblies' ) ;
#169 = EDGE_CURVE ( 'NONE', #445, #687, #291, .T. ) ;
#170 = DIRECTION ( 'NONE',  ( -0.000000000000000000, -0.000000000000000000, 1.000000000000000000 ) ) ;
#171 = VECTOR ( 'NONE', #40, 1000.000000000000000 ) ;
#172 = LINE ( 'NONE', #656, #621 ) ;
#173 = EDGE_CURVE ( 'NONE', #517, #433, #532, .T. ) ;
#174 = CARTESIAN_POINT ( 'NONE',  ( -379.1892190745223274, -338.5000000000001137, 24.50000000000000000 ) ) ;
#175 = CARTESIAN_POINT ( 'NONE',  ( 218.0000000000000284, -329.5000000000001137, 24.50000000000000000 ) ) ;
#176 = LINE ( 'NONE', #94, #271 ) ;
#177 = CARTESIAN_POINT ( 'NONE',  ( -359.9999999999999432, -320.0000000000001137, 6.500000000000002665 ) ) ;
#178 = APPROVAL ( #450, 'UNSPECIFIED' ) ;
#179 = CARTESIAN_POINT ( 'NONE',  ( 380.0000000000000568, 339.9999999999999432, 0.000000000000000000 ) ) ;
#180 = LINE ( 'NONE', #478, #663 ) ;
#181 = AXIS2_PLACEMENT_3D ( 'NONE', #673, #604, #306 ) ;
#182 = AXIS2_PLACEMENT_3D ( 'NONE', #298, #183, #112 ) ;
#183 = DIRECTION ( 'NONE',  ( 0.000000000000000000, -1.000000000000000000, 0.000000000000000000 ) ) ;
#184 = EDGE_CURVE ( 'NONE', #580, #253, #769, .T. ) ;
#185 = PERSON_AND_ORGANIZATION ( #574, #768 ) ;
#186 = DIRECTION ( 'NONE',  ( -0.000000000000000000, -0.000000000000000000, -1.000000000000000000 ) ) ;
#187 = EDGE_LOOP ( 'NONE', ( #41, #601, #744, #45 ) ) ;
#188 = PLANE ( 'NONE',  #440 ) ;
#189 = EDGE_CURVE ( 'NONE', #129, #433, #472, .T. ) ;
#190 = FACE_BOUND ( 'NONE', #493, .T. ) ;
#191 = EDGE_CURVE ( 'NONE', #739, #517, #176, .T. ) ;
#192 = AXIS2_PLACEMENT_3D ( 'NONE', #321, #559, #250 ) ;
#193 = DIRECTION ( 'NONE',  ( -0.000000000000000000, -0.000000000000000000, 1.000000000000000000 ) ) ;
#194 = CARTESIAN_POINT ( 'NONE',  ( -215.0000000000000284, -329.5000000000001137, 25.00000000000000000 ) ) ;
#195 = EDGE_LOOP ( 'NONE', ( #403, #281, #632, #560 ) ) ;
#196 = LINE ( 'NONE', #684, #591 ) ;
#197 = FACE_OUTER_BOUND ( 'NONE', #187, .T. ) ;
#198 = CARTESIAN_POINT ( 'NONE',  ( -360.0000000000000568, 319.9999999999998863, 6.500000000000002665 ) ) ;
#199 = CALENDAR_DATE ( 2026, 2, 9 ) ;
#200 = CYLINDRICAL_SURFACE ( 'NONE', #181, 3.000000000000002665 ) ;
#201 = CARTESIAN_POINT ( 'NONE',  ( 218.0000000000000284, -329.5000000000001137, 25.00000000000000000 ) ) ;
#202 = LINE ( 'NONE', #208, #16 ) ;
#203 = ORIENTED_EDGE ( 'NONE', *, *, #227, .T. ) ;
#204 = FACE_OUTER_BOUND ( 'NONE', #671, .T. ) ;
#205 = ORIENTED_EDGE ( 'NONE', *, *, #242, .F. ) ;
#206 = CARTESIAN_POINT ( 'NONE',  ( 0.000000000000000000, -338.5000000000001137, 0.000000000000000000 ) ) ;
#207 = VERTEX_POINT ( 'NONE', #561 ) ;
#208 = CARTESIAN_POINT ( 'NONE',  ( -380.0000000000000000, 339.9999999999999432, 0.000000000000000000 ) ) ;
#209 = ORIENTED_EDGE ( 'NONE', *, *, #362, .T. ) ;
#210 = PLANE ( 'NONE',  #109 ) ;
#211 = EDGE_LOOP ( 'NONE', ( #267, #633, #498, #575, #510, #680, #20 ) ) ;
#212 = ORIENTED_EDGE ( 'NONE', *, *, #697, .T. ) ;
#213 = COORDINATED_UNIVERSAL_TIME_OFFSET ( 4, 0, .BEHIND. ) ;
#214 = EDGE_LOOP ( 'NONE', ( #630, #140, #577, #34 ) ) ;
#215 = CYLINDRICAL_SURFACE ( 'NONE', #121, 3.000000000000002665 ) ;
#216 = VERTEX_POINT ( 'NONE', #144 ) ;
#217 = ORIENTED_EDGE ( 'NONE', *, *, #132, .F. ) ;
#218 = DIRECTION ( 'NONE',  ( -0.000000000000000000, -0.000000000000000000, 1.000000000000000000 ) ) ;
#219 = ADVANCED_FACE ( 'NONE', ( #674 ), #742, .F. ) ;
#220 = EDGE_LOOP ( 'NONE', ( #480, #394, #90, #399, #456, #380, #203, #314 ) ) ;
#221 = AXIS2_PLACEMENT_3D ( 'NONE', #201, #150, #620 ) ;
#222 = VECTOR ( 'NONE', #708, 1000.000000000000000 ) ;
#223 = CARTESIAN_POINT ( 'NONE',  ( 360.0000000000000568, -320.0000000000001137, 6.500000000000002665 ) ) ;
#224 = ORIENTED_EDGE ( 'NONE', *, *, #444, .T. ) ;
#225 = ORIENTED_EDGE ( 'NONE', *, *, #718, .F. ) ;
#226 = DIRECTION ( 'NONE',  ( -1.000000000000000000, -0.000000000000000000, 4.818676322157798084E-18 ) ) ;
#227 = EDGE_CURVE ( 'NONE', #522, #503, #732, .T. ) ;
#228 = CARTESIAN_POINT ( 'NONE',  ( 379.7394020339337430, -320.0000000000001137, 6.500000000000002665 ) ) ;
#229 = FACE_BOUND ( 'NONE', #87, .T. ) ;
#230 = CARTESIAN_POINT ( 'NONE',  ( 379.7394020339337999, -338.5000000000001137, 24.50000000000000000 ) ) ;
#231 = CARTESIAN_POINT ( 'NONE',  ( 360.0000000000000568, -320.0000000000001137, 6.500000000000002665 ) ) ;
#232 = CARTESIAN_POINT ( 'NONE',  ( -379.9999999999998863, -340.0000000000000568, 0.000000000000000000 ) ) ;
#233 = CARTESIAN_POINT ( 'NONE',  ( -218.0000000000000284, -329.5000000000001137, 25.00000000000000000 ) ) ;
#234 = FACE_OUTER_BOUND ( 'NONE', #730, .T. ) ;
#235 = DIRECTION ( 'NONE',  ( -0.000000000000000000, -0.000000000000000000, -1.000000000000000000 ) ) ;
#236 = CARTESIAN_POINT ( 'NONE',  ( -360.0000000000000568, 319.9999999999998863, 6.500000000000002665 ) ) ;
#237 = VECTOR ( 'NONE', #186, 1000.000000000000000 ) ;
#238 = ADVANCED_FACE ( 'NONE', ( #381 ), #436, .F. ) ;
#239 = ORIENTED_EDGE ( 'NONE', *, *, #751, .T. ) ;
#240 = APPLICATION_PROTOCOL_DEFINITION ( 'international standard', 'config_control_design', 1994, #447 ) ;
#241 = EDGE_CURVE ( 'NONE', #102, #216, #202, .T. ) ;
#242 = EDGE_CURVE ( 'NONE', #496, #125, #617, .T. ) ;
#243 = APPROVAL_DATE_TIME ( #8, #166 ) ;
#244 = EDGE_CURVE ( 'NONE', #157, #216, #623, .T. ) ;
#245 = CARTESIAN_POINT ( 'NONE',  ( -359.9999999999999432, -320.0000000000001137, 6.500000000000002665 ) ) ;
#246 = DIRECTION ( 'NONE',  ( -0.000000000000000000, -0.000000000000000000, 1.000000000000000000 ) ) ;
#247 = CARTESIAN_POINT ( 'NONE',  ( 380.0000000000000568, 339.9999999999999432, 25.00000000000000000 ) ) ;
#248 = DIRECTION ( 'NONE',  ( 0.000000000000000000, -0.000000000000000000, -1.000000000000000000 ) ) ;
#249 = ORIENTED_EDGE ( 'NONE', *, *, #437, .T. ) ;
#250 = DIRECTION ( 'NONE',  ( -1.734723475976807094E-16, 1.000000000000000000, 0.000000000000000000 ) ) ;
#251 = CARTESIAN_POINT ( 'NONE',  ( 221.0000000000000284, -329.5000000000001137, 6.500000000000002665 ) ) ;
#252 = VECTOR ( 'NONE', #288, 1000.000000000000000 ) ;
#253 = VERTEX_POINT ( 'NONE', #557 ) ;
#254 =( GEOMETRIC_REPRESENTATION_CONTEXT ( 3 ) GLOBAL_UNCERTAINTY_ASSIGNED_CONTEXT ( ( #347 ) ) GLOBAL_UNIT_ASSIGNED_CONTEXT ( ( #664, #19, #82 ) ) REPRESENTATION_CONTEXT ( 'NONE', 'WORKASPACE' ) );
#255 = LINE ( 'NONE', #468, #292 ) ;
#256 = CALENDAR_DATE ( 2026, 2, 9 ) ;
#257 = ORIENTED_EDGE ( 'NONE', *, *, #244, .F. ) ;
#258 = CARTESIAN_POINT ( 'NONE',  ( 359.9999999999999432, 319.9999999999998863, 25.00000000000000000 ) ) ;
#259 = ORIENTED_EDGE ( 'NONE', *, *, #303, .F. ) ;
#260 = PLANE ( 'NONE',  #353 ) ;
#261 = EDGE_LOOP ( 'NONE', ( #438, #95, #749, #28 ) ) ;
#262 = DIRECTION ( 'NONE',  ( -0.000000000000000000, 0.000000000000000000, 1.000000000000000000 ) ) ;
#263 = EDGE_LOOP ( 'NONE', ( #10, #760, #259, #421, #665, #721, #519 ) ) ;
#264 = DIRECTION ( 'NONE',  ( -1.000000000000000000, -1.734723475976807094E-16, 0.000000000000000000 ) ) ;
#265 = EDGE_LOOP ( 'NONE', ( #640, #257, #333, #239 ) ) ;
#266 = PERSON_AND_ORGANIZATION ( #574, #768 ) ;
#267 = ORIENTED_EDGE ( 'NONE', *, *, #189, .T. ) ;
#268 = CARTESIAN_POINT ( 'NONE',  ( -212.0000000000000284, -329.5000000000001137, 6.500000000000002665 ) ) ;
#269 = ORIENTED_EDGE ( 'NONE', *, *, #184, .T. ) ;
#270 = ADVANCED_FACE ( 'NONE', ( #23 ), #260, .F. ) ;
#271 = VECTOR ( 'NONE', #431, 1000.000000000000000 ) ;
#272 = VECTOR ( 'NONE', #694, 1000.000000000000000 ) ;
#273 = CARTESIAN_POINT ( 'NONE',  ( -360.0000000000000568, 319.9999999999998863, 6.500000000000002665 ) ) ;
#274 = ORIENTED_EDGE ( 'NONE', *, *, #362, .F. ) ;
#275 = EDGE_CURVE ( 'NONE', #83, #338, #153, .T. ) ;
#276 = ORIENTED_EDGE ( 'NONE', *, *, #608, .F. ) ;
#277 = CARTESIAN_POINT ( 'NONE',  ( -379.1892190745223274, -338.5000000000001137, 24.50000000000000000 ) ) ;
#278 = PRODUCT ( 'panel-solar-100w', 'panel-solar-100w', '', ( #479 ) ) ;
#279 = VERTEX_POINT ( 'NONE', #315 ) ;
#280 = CARTESIAN_POINT ( 'NONE',  ( 359.9999999999999432, 338.4999999999998863, 24.50000000000000000 ) ) ;
#281 = ORIENTED_EDGE ( 'NONE', *, *, #56, .T. ) ;
#282 = VECTOR ( 'NONE', #439, 1000.000000000000000 ) ;
#283 = APPROVAL_PERSON_ORGANIZATION ( #609, #600, #613 ) ;
#284 = ORIENTED_EDGE ( 'NONE', *, *, #113, .T. ) ;
#285 = LINE ( 'NONE', #585, #65 ) ;
#286 = ADVANCED_FACE ( 'NONE', ( #156 ), #735, .F. ) ;
#287 = CARTESIAN_POINT ( 'NONE',  ( -379.9999999999998863, -340.0000000000000568, 0.000000000000000000 ) ) ;
#288 = DIRECTION ( 'NONE',  ( -1.734723475976807094E-16, 1.000000000000000000, -0.000000000000000000 ) ) ;
#289 = FACE_OUTER_BOUND ( 'NONE', #261, .T. ) ;
#290 = DESIGN_CONTEXT ( 'detailed design', #168, 'design' ) ;
#291 = LINE ( 'NONE', #174, #476 ) ;
#292 = VECTOR ( 'NONE', #350, 1000.000000000000000 ) ;
#293 = DIRECTION ( 'NONE',  ( -0.000000000000000000, -0.000000000000000000, -1.000000000000000000 ) ) ;
#294 = VECTOR ( 'NONE', #535, 1000.000000000000000 ) ;
#295 = PLANE ( 'NONE',  #48 ) ;
#296 = PLANE ( 'NONE',  #477 ) ;
#297 = LINE ( 'NONE', #413, #745 ) ;
#298 = CARTESIAN_POINT ( 'NONE',  ( 0.000000000000000000, -320.0000000000001137, 0.000000000000000000 ) ) ;
#299 = EDGE_CURVE ( 'NONE', #517, #567, #196, .T. ) ;
#300 = CARTESIAN_POINT ( 'NONE',  ( -215.0000000000000284, -329.5000000000001137, 24.50000000000000000 ) ) ;
#301 = VECTOR ( 'NONE', #170, 1000.000000000000000 ) ;
#302 = AXIS2_PLACEMENT_3D ( 'NONE', #300, #764, #148 ) ;
#303 = EDGE_CURVE ( 'NONE', #43, #207, #627, .T. ) ;
#304 = PERSON_AND_ORGANIZATION_ROLE ( 'design_owner' ) ;
#305 = CARTESIAN_POINT ( 'NONE',  ( -215.0000000000000284, -329.5000000000001137, 25.00000000000000000 ) ) ;
#306 = DIRECTION ( 'NONE',  ( 1.000000000000000000, 0.000000000000000000, 0.000000000000000000 ) ) ;
#307 = ORIENTED_EDGE ( 'NONE', *, *, #770, .F. ) ;
#308 = CARTESIAN_POINT ( 'NONE',  ( 0.000000000000000000, -320.0000000000001137, 0.000000000000000000 ) ) ;
#309 = EDGE_LOOP ( 'NONE', ( #13, #598, #515, #392 ) ) ;
#310 = LINE ( 'NONE', #136, #726 ) ;
#311 = PLANE ( 'NONE',  #378 ) ;
#312 = LINE ( 'NONE', #670, #508 ) ;
#313 = CARTESIAN_POINT ( 'NONE',  ( 380.0000000000000568, 339.9999999999999432, 25.00000000000000000 ) ) ;
#314 = ORIENTED_EDGE ( 'NONE', *, *, #471, .T. ) ;
#315 = CARTESIAN_POINT ( 'NONE',  ( -379.9999999999998863, -340.0000000000000568, 25.00000000000000000 ) ) ;
#316 = AXIS2_PLACEMENT_3D ( 'NONE', #91, #327, #554 ) ;
#317 = AXIS2_PLACEMENT_3D ( 'NONE', #165, #341, #332 ) ;
#318 = DIRECTION ( 'NONE',  ( -0.000000000000000000, -0.000000000000000000, -1.000000000000000000 ) ) ;
#319 = COORDINATED_UNIVERSAL_TIME_OFFSET ( 4, 0, .BEHIND. ) ;
#320 = EDGE_LOOP ( 'NONE', ( #269, #143, #562, #212 ) ) ;
#321 = CARTESIAN_POINT ( 'NONE',  ( 359.9999999999999432, 319.9999999999998863, 6.500000000000002665 ) ) ;
#322 = ORIENTED_EDGE ( 'NONE', *, *, #335, .T. ) ;
#323 = CARTESIAN_POINT ( 'NONE',  ( -360.0000000000000568, 319.9999999999998863, 6.500000000000002665 ) ) ;
#324 = ORIENTED_EDGE ( 'NONE', *, *, #189, .F. ) ;
#325 = DATE_TIME_ROLE ( 'classification_date' ) ;
#326 = ORIENTED_EDGE ( 'NONE', *, *, #711, .T. ) ;
#327 = DIRECTION ( 'NONE',  ( 0.000000000000000000, 0.000000000000000000, 1.000000000000000000 ) ) ;
#328 = CC_DESIGN_PERSON_AND_ORGANIZATION_ASSIGNMENT ( #689, #746, ( #406 ) ) ;
#329 = ORIENTED_EDGE ( 'NONE', *, *, #637, .T. ) ;
#330 = PERSON_AND_ORGANIZATION ( #574, #768 ) ;
#331 = ORIENTED_EDGE ( 'NONE', *, *, #608, .T. ) ;
#332 = DIRECTION ( 'NONE',  ( -0.000000000000000000, 0.000000000000000000, 1.000000000000000000 ) ) ;
#333 = ORIENTED_EDGE ( 'NONE', *, *, #578, .F. ) ;
#334 = ADVANCED_FACE ( 'NONE', ( #499 ), #33, .F. ) ;
#335 = EDGE_CURVE ( 'NONE', #505, #46, #551, .T. ) ;
#336 = MANIFOLD_SOLID_BREP ( 'Cortar-Extruir5', #128 ) ;
#337 = EDGE_CURVE ( 'NONE', #46, #505, #715, .T. ) ;
#338 = VERTEX_POINT ( 'NONE', #84 ) ;
#339 = LINE ( 'NONE', #228, #18 ) ;
#340 = ORIENTED_EDGE ( 'NONE', *, *, #660, .T. ) ;
#341 = DIRECTION ( 'NONE',  ( -1.000000000000000000, 0.000000000000000000, -0.000000000000000000 ) ) ;
#342 = ORIENTED_EDGE ( 'NONE', *, *, #666, .F. ) ;
#343 = CARTESIAN_POINT ( 'NONE',  ( 380.0000000000001137, -340.0000000000000568, 25.00000000000000000 ) ) ;
#344 = VECTOR ( 'NONE', #21, 1000.000000000000000 ) ;
#345 = AXIS2_PLACEMENT_3D ( 'NONE', #308, #375, #248 ) ;
#346 = CARTESIAN_POINT ( 'NONE',  ( -380.0000000000000000, 339.9999999999999432, 25.00000000000000000 ) ) ;
#347 = UNCERTAINTY_MEASURE_WITH_UNIT (LENGTH_MEASURE( 1.000000000000000082E-05 ), #664, 'distance_accuracy_value', 'NONE');
#348 = DIRECTION ( 'NONE',  ( -1.000000000000000000, -8.163404592832033966E-17, 0.000000000000000000 ) ) ;
#349 = DIRECTION ( 'NONE',  ( -0.000000000000000000, 0.000000000000000000, 1.000000000000000000 ) ) ;
#350 = DIRECTION ( 'NONE',  ( -1.000000000000000000, -0.000000000000000000, -0.000000000000000000 ) ) ;
#351 = DIRECTION ( 'NONE',  ( -0.000000000000000000, -0.000000000000000000, -1.000000000000000000 ) ) ;
#352 = ADVANCED_FACE ( 'NONE', ( #446 ), #69, .F. ) ;
#353 = AXIS2_PLACEMENT_3D ( 'NONE', #323, #736, #443 ) ;
#354 = DIRECTION ( 'NONE',  ( -1.000000000000000000, -0.000000000000000000, -0.000000000000000000 ) ) ;
#355 = VECTOR ( 'NONE', #669, 1000.000000000000000 ) ;
#356 = DIRECTION ( 'NONE',  ( -8.163404592832032733E-17, 1.000000000000000000, -0.000000000000000000 ) ) ;
#357 = PLANE ( 'NONE',  #79 ) ;
#358 = CARTESIAN_POINT ( 'NONE',  ( -360.0000000000000568, 338.4999999999998863, 6.500000000000002665 ) ) ;
#359 = EDGE_CURVE ( 'NONE', #565, #106, #672, .T. ) ;
#360 = CARTESIAN_POINT ( 'NONE',  ( 359.9999999999999432, -320.0000000000001137, 24.50000000000000000 ) ) ;
#361 = ORIENTED_EDGE ( 'NONE', *, *, #56, .F. ) ;
#362 = EDGE_CURVE ( 'NONE', #157, #279, #729, .T. ) ;
#363 = APPROVAL_ROLE ( '' ) ;
#364 = AXIS2_PLACEMENT_3D ( 'NONE', #198, #264, #495 ) ;
#365 = CIRCLE ( 'NONE', #302, 3.000000000000002665 ) ;
#366 = CARTESIAN_POINT ( 'NONE',  ( 218.0000000000000284, -329.5000000000001137, 6.500000000000002665 ) ) ;
#367 = CARTESIAN_POINT ( 'NONE',  ( 0.000000000000000000, 0.000000000000000000, 0.000000000000000000 ) ) ;
#368 = ORIENTED_EDGE ( 'NONE', *, *, #114, .F. ) ;
#369 = FACE_OUTER_BOUND ( 'NONE', #154, .T. ) ;
#370 = DIRECTION ( 'NONE',  ( 1.000000000000000000, 0.000000000000000000, 0.000000000000000000 ) ) ;
#371 = EDGE_LOOP ( 'NONE', ( #340, #606, #331, #368, #149, #482 ) ) ;
#372 = FACE_OUTER_BOUND ( 'NONE', #728, .T. ) ;
#373 = CYLINDRICAL_SURFACE ( 'NONE', #653, 3.000000000000002665 ) ;
#374 = DIRECTION ( 'NONE',  ( 1.000000000000000000, 0.000000000000000000, -3.083952846180990083E-15 ) ) ;
#375 = DIRECTION ( 'NONE',  ( 0.000000000000000000, -1.000000000000000000, 0.000000000000000000 ) ) ;
#376 = ORIENTED_EDGE ( 'NONE', *, *, #697, .F. ) ;
#377 = DIRECTION ( 'NONE',  ( 1.000000000000000000, 0.000000000000000000, 0.000000000000000000 ) ) ;
#378 = AXIS2_PLACEMENT_3D ( 'NONE', #137, #668, #549 ) ;
#379 = SECURITY_CLASSIFICATION ( '', '', #454 ) ;
#380 = ORIENTED_EDGE ( 'NONE', *, *, #115, .F. ) ;
#381 = FACE_OUTER_BOUND ( 'NONE', #309, .T. ) ;
#382 = ORIENTED_EDGE ( 'NONE', *, *, #695, .T. ) ;
#383 = EDGE_CURVE ( 'NONE', #106, #685, #635, .T. ) ;
#384 = ORIENTED_EDGE ( 'NONE', *, *, #467, .F. ) ;
#385 = DIRECTION ( 'NONE',  ( -1.000000000000000000, -0.000000000000000000, 4.818676322157798084E-18 ) ) ;
#386 = ORIENTED_EDGE ( 'NONE', *, *, #437, .F. ) ;
#387 = CARTESIAN_POINT ( 'NONE',  ( -360.0000000000000568, 319.9999999999998863, 25.00000000000000000 ) ) ;
#388 = PERSON_AND_ORGANIZATION_ROLE ( 'creator' ) ;
#389 = VERTEX_POINT ( 'NONE', #26 ) ;
#390 = DIRECTION ( 'NONE',  ( -0.000000000000000000, -0.000000000000000000, 1.000000000000000000 ) ) ;
#391 = EDGE_CURVE ( 'NONE', #43, #448, #543, .T. ) ;
#392 = ORIENTED_EDGE ( 'NONE', *, *, #114, .T. ) ;
#393 = ADVANCED_FACE ( 'NONE', ( #77 ), #188, .T. ) ;
#394 = ORIENTED_EDGE ( 'NONE', *, *, #420, .F. ) ;
#395 = CARTESIAN_POINT ( 'NONE',  ( -379.1892190745223274, -320.0000000000001137, 6.500000000000002665 ) ) ;
#396 = ORIENTED_EDGE ( 'NONE', *, *, #241, .F. ) ;
#397 = VECTOR ( 'NONE', #634, 1000.000000000000000 ) ;
#398 = CC_DESIGN_APPROVAL ( #600, ( #714 ) ) ;
#399 = ORIENTED_EDGE ( 'NONE', *, *, #391, .T. ) ;
#400 = CARTESIAN_POINT ( 'NONE',  ( 379.7394020339337999, -320.0000000000001137, 24.50000000000000000 ) ) ;
#401 = ORIENTED_EDGE ( 'NONE', *, *, #152, .F. ) ;
#402 = LINE ( 'NONE', #641, #654 ) ;
#403 = ORIENTED_EDGE ( 'NONE', *, *, #488, .F. ) ;
#404 = LINE ( 'NONE', #395, #487 ) ;
#405 = VECTOR ( 'NONE', #354, 1000.000000000000000 ) ;
#406 = PRODUCT_DEFINITION_FORMATION_WITH_SPECIFIED_SOURCE ( 'ANY', '', #278, .NOT_KNOWN. ) ;
#407 = CARTESIAN_POINT ( 'NONE',  ( -360.0000000000000568, -320.0000000000001137, 6.500000000000002665 ) ) ;
#408 = CC_DESIGN_PERSON_AND_ORGANIZATION_ASSIGNMENT ( #139, #733, ( #714 ) ) ;
#409 = DIRECTION ( 'NONE',  ( 1.000000000000000000, 0.000000000000000000, 0.000000000000000000 ) ) ;
#410 = CARTESIAN_POINT ( 'NONE',  ( -379.1892190745223274, -338.5000000000001137, 24.50000000000000000 ) ) ;
#411 = DIRECTION ( 'NONE',  ( 0.000000000000000000, -0.000000000000000000, 1.000000000000000000 ) ) ;
#412 = ADVANCED_FACE ( 'NONE', ( #372 ), #210, .F. ) ;
#413 = CARTESIAN_POINT ( 'NONE',  ( 360.0000000000000568, -320.0000000000001137, 6.500000000000002665 ) ) ;
#414 = DIRECTION ( 'NONE',  ( -0.000000000000000000, -0.000000000000000000, 1.000000000000000000 ) ) ;
#415 = VECTOR ( 'NONE', #492, 1000.000000000000000 ) ;
#416 = CARTESIAN_POINT ( 'NONE',  ( 380.0000000000000568, 339.9999999999999432, 25.00000000000000000 ) ) ;
#417 = CIRCLE ( 'NONE', #110, 3.000000000000002665 ) ;
#418 = LINE ( 'NONE', #358, #531 ) ;
#419 = CARTESIAN_POINT ( 'NONE',  ( -360.0000000000000568, 338.4999999999998863, 24.50000000000000355 ) ) ;
#420 = EDGE_CURVE ( 'NONE', #675, #636, #310, .T. ) ;
#421 = ORIENTED_EDGE ( 'NONE', *, *, #657, .F. ) ;
#422 = CARTESIAN_POINT ( 'NONE',  ( 0.000000000000000000, 0.000000000000000000, 6.500000000000002665 ) ) ;
#423 = VECTOR ( 'NONE', #570, 1000.000000000000000 ) ;
#424 = AXIS2_PLACEMENT_3D ( 'NONE', #346, #518, #42 ) ;
#425 = FACE_BOUND ( 'NONE', #678, .T. ) ;
#426 = DIRECTION ( 'NONE',  ( 1.000000000000000000, 0.000000000000000000, 0.000000000000000000 ) ) ;
#427 = ORIENTED_EDGE ( 'NONE', *, *, #36, .F. ) ;
#428 = DIRECTION ( 'NONE',  ( -0.000000000000000000, -0.000000000000000000, 1.000000000000000000 ) ) ;
#429 = CARTESIAN_POINT ( 'NONE',  ( -379.9999999999998863, -340.0000000000000568, 25.00000000000000000 ) ) ;
#430 = ADVANCED_FACE ( 'NONE', ( #369 ), #611, .F. ) ;
#431 = DIRECTION ( 'NONE',  ( -0.000000000000000000, -1.000000000000000000, -0.000000000000000000 ) ) ;
#432 = APPROVAL_STATUS ( 'not_yet_approved' ) ;
#433 = VERTEX_POINT ( 'NONE', #258 ) ;
#434 = CARTESIAN_POINT ( 'NONE',  ( 380.0000000000000568, 339.9999999999999432, 0.000000000000000000 ) ) ;
#435 = ORIENTED_EDGE ( 'NONE', *, *, #169, .F. ) ;
#436 = PLANE ( 'NONE',  #145 ) ;
#437 = EDGE_CURVE ( 'NONE', #253, #102, #494, .T. ) ;
#438 = ORIENTED_EDGE ( 'NONE', *, *, #303, .T. ) ;
#439 = DIRECTION ( 'NONE',  ( -0.000000000000000000, -0.000000000000000000, 1.000000000000000000 ) ) ;
#440 = AXIS2_PLACEMENT_3D ( 'NONE', #422, #262, #740 ) ;
#441 = VECTOR ( 'NONE', #293, 1000.000000000000000 ) ;
#442 = EDGE_LOOP ( 'NONE', ( #734, #39, #209, #610 ) ) ;
#443 = DIRECTION ( 'NONE',  ( 0.000000000000000000, -0.000000000000000000, 1.000000000000000000 ) ) ;
#444 = EDGE_CURVE ( 'NONE', #513, #253, #107, .T. ) ;
#445 = VERTEX_POINT ( 'NONE', #277 ) ;
#446 = FACE_OUTER_BOUND ( 'NONE', #211, .T. ) ;
#447 = APPLICATION_CONTEXT ( 'configuration controlled 3d designs of mechanical parts and assemblies' ) ;
#448 = VERTEX_POINT ( 'NONE', #579 ) ;
#449 = ORIENTED_EDGE ( 'NONE', *, *, #471, .F. ) ;
#450 = APPROVAL_STATUS ( 'not_yet_approved' ) ;
#451 = ORIENTED_EDGE ( 'NONE', *, *, #299, .T. ) ;
#452 = CARTESIAN_POINT ( 'NONE',  ( -218.0000000000000284, -329.5000000000001137, 6.500000000000002665 ) ) ;
#453 = ORIENTED_EDGE ( 'NONE', *, *, #337, .F. ) ;
#454 = SECURITY_CLASSIFICATION_LEVEL ( 'unclassified' ) ;
#455 = DIRECTION ( 'NONE',  ( -3.083952846180990478E-15, -0.000000000000000000, -1.000000000000000000 ) ) ;
#456 = ORIENTED_EDGE ( 'NONE', *, *, #695, .F. ) ;
#457 = AXIS2_PLACEMENT_3D ( 'NONE', #72, #548, #14 ) ;
#458 = CIRCLE ( 'NONE', #67, 3.000000000000002665 ) ;
#459 = PRODUCT_RELATED_PRODUCT_CATEGORY ( 'detail', '', ( #278 ) ) ;
#460 = DIRECTION ( 'NONE',  ( -1.000000000000000000, -0.000000000000000000, -0.000000000000000000 ) ) ;
#461 = LINE ( 'NONE', #463, #759 ) ;
#462 = CC_DESIGN_PERSON_AND_ORGANIZATION_ASSIGNMENT ( #720, #388, ( #406 ) ) ;
#463 = CARTESIAN_POINT ( 'NONE',  ( -380.0000000000000000, 339.9999999999999432, 25.00000000000000000 ) ) ;
#464 = LINE ( 'NONE', #771, #222 ) ;
#465 = AXIS2_PLACEMENT_3D ( 'NONE', #474, #593, #612 ) ;
#466 = LOCAL_TIME ( 15, 49, 2.000000000000000000, #319 ) ;
#467 = EDGE_CURVE ( 'NONE', #739, #700, #285, .T. ) ;
#468 = CARTESIAN_POINT ( 'NONE',  ( -360.0000000000000568, 319.9999999999998863, 25.00000000000000000 ) ) ;
#469 = EDGE_CURVE ( 'NONE', #207, #724, #96, .T. ) ;
#470 = CARTESIAN_POINT ( 'NONE',  ( -379.1892190745223274, -320.0000000000001137, 24.50000000000000000 ) ) ;
#471 = EDGE_CURVE ( 'NONE', #503, #569, #404, .T. ) ;
#472 = LINE ( 'NONE', #651, #767 ) ;
#473 = PLANE ( 'NONE',  #182 ) ;
#474 = CARTESIAN_POINT ( 'NONE',  ( -359.9999999999999432, -320.0000000000001137, 6.500000000000002665 ) ) ;
#475 = CARTESIAN_POINT ( 'NONE',  ( 359.9999999999999432, 338.4999999999998863, 24.50000000000000000 ) ) ;
#476 = VECTOR ( 'NONE', #483, 1000.000000000000000 ) ;
#477 = AXIS2_PLACEMENT_3D ( 'NONE', #64, #349, #409 ) ;
#478 = CARTESIAN_POINT ( 'NONE',  ( 379.7394020339337999, -320.0000000000001137, 24.50000000000000000 ) ) ;
#479 = MECHANICAL_CONTEXT ( 'NONE', #447, 'mechanical' ) ;
#480 = ORIENTED_EDGE ( 'NONE', *, *, #108, .T. ) ;
#481 = DIRECTION ( 'NONE',  ( 1.632680918566406547E-16, -1.000000000000000000, 0.000000000000000000 ) ) ;
#482 = ORIENTED_EDGE ( 'NONE', *, *, #169, .T. ) ;
#483 = DIRECTION ( 'NONE',  ( -0.000000000000000000, 1.000000000000000000, -0.000000000000000000 ) ) ;
#484 = DIRECTION ( 'NONE',  ( 1.000000000000000000, 0.000000000000000000, -4.818676322157798854E-18 ) ) ;
#485 = ORIENTED_EDGE ( 'NONE', *, *, #688, .F. ) ;
#486 = DIRECTION ( 'NONE',  ( 1.000000000000000000, -0.000000000000000000, -0.000000000000000000 ) ) ;
#487 = VECTOR ( 'NONE', #460, 1000.000000000000000 ) ;
#488 = EDGE_CURVE ( 'NONE', #389, #685, #44, .T. ) ;
#489 = LOCAL_TIME ( 15, 49, 2.000000000000000000, #719 ) ;
#490 = CARTESIAN_POINT ( 'NONE',  ( 379.7394020339337999, -320.0000000000001137, 24.50000000000000000 ) ) ;
#491 = ORIENTED_EDGE ( 'NONE', *, *, #51, .T. ) ;
#492 = DIRECTION ( 'NONE',  ( 1.632680918566406547E-16, -1.000000000000000000, 0.000000000000000000 ) ) ;
#493 = EDGE_LOOP ( 'NONE', ( #558, #361 ) ) ;
#494 = LINE ( 'NONE', #434, #538 ) ;
#495 = DIRECTION ( 'NONE',  ( 1.734723475976807094E-16, -1.000000000000000000, 0.000000000000000000 ) ) ;
#496 = VERTEX_POINT ( 'NONE', #516 ) ;
#497 = FACE_OUTER_BOUND ( 'NONE', #71, .T. ) ;
#498 = ORIENTED_EDGE ( 'NONE', *, *, #191, .F. ) ;
#499 = FACE_OUTER_BOUND ( 'NONE', #214, .T. ) ;
#500 = ORIENTED_EDGE ( 'NONE', *, *, #563, .T. ) ;
#501 = EDGE_CURVE ( 'NONE', #567, #83, #512, .T. ) ;
#502 = DIRECTION ( 'NONE',  ( -3.083952846180990083E-15, 0.000000000000000000, -1.000000000000000000 ) ) ;
#503 = VERTEX_POINT ( 'NONE', #162 ) ;
#504 = DATE_AND_TIME ( #564, #584 ) ;
#505 = VERTEX_POINT ( 'NONE', #644 ) ;
#506 = CARTESIAN_POINT ( 'NONE',  ( -380.0000000000000000, 339.9999999999999432, 25.00000000000000000 ) ) ;
#507 = EDGE_CURVE ( 'NONE', #32, #503, #339, .T. ) ;
#508 = VECTOR ( 'NONE', #527, 1000.000000000000000 ) ;
#509 = CC_DESIGN_SECURITY_CLASSIFICATION ( #379, ( #406 ) ) ;
#510 = ORIENTED_EDGE ( 'NONE', *, *, #108, .F. ) ;
#511 = SHAPE_DEFINITION_REPRESENTATION ( #160, #88 ) ;
#512 = LINE ( 'NONE', #273, #58 ) ;
#513 = VERTEX_POINT ( 'NONE', #343 ) ;
#514 = APPROVAL_ROLE ( '' ) ;
#515 = ORIENTED_EDGE ( 'NONE', *, *, #637, .F. ) ;
#516 = CARTESIAN_POINT ( 'NONE',  ( 221.0000000000000284, -329.5000000000001137, 24.50000000000000000 ) ) ;
#517 = VERTEX_POINT ( 'NONE', #638 ) ;
#518 = DIRECTION ( 'NONE',  ( 0.000000000000000000, -1.000000000000000000, 0.000000000000000000 ) ) ;
#519 = ORIENTED_EDGE ( 'NONE', *, *, #501, .T. ) ;
#520 = VECTOR ( 'NONE', #78, 1000.000000000000000 ) ;
#521 = CC_DESIGN_APPROVAL ( #166, ( #406 ) ) ;
#522 = VERTEX_POINT ( 'NONE', #702 ) ;
#523 = FACE_OUTER_BOUND ( 'NONE', #30, .T. ) ;
#524 = EDGE_CURVE ( 'NONE', #279, #513, #103, .T. ) ;
#525 = FACE_OUTER_BOUND ( 'NONE', #320, .T. ) ;
#526 = ADVANCED_FACE ( 'NONE', ( #100 ), #215, .F. ) ;
#527 = DIRECTION ( 'NONE',  ( -0.000000000000000000, 1.000000000000000000, -0.000000000000000000 ) ) ;
#528 = ADVANCED_FACE ( 'NONE', ( #523 ), #631, .F. ) ;
#529 = CARTESIAN_POINT ( 'NONE',  ( -379.1892190745223274, -320.0000000000001137, 24.50000000000000000 ) ) ;
#530 = AXIS2_PLACEMENT_3D ( 'NONE', #647, #116, #426 ) ;
#531 = VECTOR ( 'NONE', #235, 1000.000000000000000 ) ;
#532 = LINE ( 'NONE', #725, #699 ) ;
#533 = LINE ( 'NONE', #177, #122 ) ;
#534 = CARTESIAN_POINT ( 'NONE',  ( 221.0000000000000284, -329.5000000000001137, 25.00000000000000000 ) ) ;
#535 = DIRECTION ( 'NONE',  ( -0.000000000000000000, -1.000000000000000000, -0.000000000000000000 ) ) ;
#536 = CARTESIAN_POINT ( 'NONE',  ( 359.9999999999999432, 319.9999999999998863, 6.500000000000002665 ) ) ;
#537 = FACE_OUTER_BOUND ( 'NONE', #442, .T. ) ;
#538 = VECTOR ( 'NONE', #158, 1000.000000000000000 ) ;
#539 = CC_DESIGN_APPROVAL ( #178, ( #379 ) ) ;
#540 = DATE_AND_TIME ( #199, #489 ) ;
#541 = EDGE_CURVE ( 'NONE', #636, #739, #47, .T. ) ;
#542 = CALENDAR_DATE ( 2026, 2, 9 ) ;
#543 = LINE ( 'NONE', #722, #344 ) ;
#544 = CARTESIAN_POINT ( 'NONE',  ( -359.9999999999999432, -320.0000000000001137, 25.00000000000000000 ) ) ;
#545 = ADVANCED_FACE ( 'NONE', ( #576 ), #703, .F. ) ;
#546 = PLANE ( 'NONE',  #5 ) ;
#547 = ORIENTED_EDGE ( 'NONE', *, *, #6, .F. ) ;
#548 = DIRECTION ( 'NONE',  ( 1.000000000000000000, 1.632680918566406793E-16, -0.000000000000000000 ) ) ;
#549 = DIRECTION ( 'NONE',  ( 1.000000000000000000, 0.000000000000000000, -0.000000000000000000 ) ) ;
#550 = PLANE ( 'NONE',  #465 ) ;
#551 = CIRCLE ( 'NONE', #221, 3.000000000000002665 ) ;
#552 = DIRECTION ( 'NONE',  ( 1.000000000000000000, 0.000000000000000000, 0.000000000000000000 ) ) ;
#553 = EDGE_LOOP ( 'NONE', ( #386, #690, #93, #396 ) ) ;
#554 = DIRECTION ( 'NONE',  ( 1.000000000000000000, 0.000000000000000000, 0.000000000000000000 ) ) ;
#555 = AXIS2_PLACEMENT_3D ( 'NONE', #429, #597, #411 ) ;
#556 = ORIENTED_EDGE ( 'NONE', *, *, #607, .F. ) ;
#557 = CARTESIAN_POINT ( 'NONE',  ( 380.0000000000001137, -340.0000000000000568, 0.000000000000000000 ) ) ;
#558 = ORIENTED_EDGE ( 'NONE', *, *, #743, .F. ) ;
#559 = DIRECTION ( 'NONE',  ( 1.000000000000000000, 1.734723475976807094E-16, 0.000000000000000000 ) ) ;
#560 = ORIENTED_EDGE ( 'NONE', *, *, #383, .T. ) ;
#561 = CARTESIAN_POINT ( 'NONE',  ( -359.9999999999999432, -320.0000000000001137, 24.50000000000000000 ) ) ;
#562 = ORIENTED_EDGE ( 'NONE', *, *, #524, .F. ) ;
#563 = EDGE_CURVE ( 'NONE', #125, #505, #402, .T. ) ;
#564 = CALENDAR_DATE ( 2026, 2, 9 ) ;
#565 = VERTEX_POINT ( 'NONE', #698 ) ;
#566 = DIRECTION ( 'NONE',  ( -0.000000000000000000, -0.000000000000000000, 1.000000000000000000 ) ) ;
#567 = VERTEX_POINT ( 'NONE', #757 ) ;
#568 = APPROVAL_DATE_TIME ( #504, #178 ) ;
#569 = VERTEX_POINT ( 'NONE', #223 ) ;
#570 = DIRECTION ( 'NONE',  ( -0.000000000000000000, -0.000000000000000000, -1.000000000000000000 ) ) ;
#571 = VECTOR ( 'NONE', #246, 1000.000000000000000 ) ;
#572 = VECTOR ( 'NONE', #766, 1000.000000000000000 ) ;
#573 = VERTEX_POINT ( 'NONE', #762 ) ;
#574 = PERSON ( 'UNSPECIFIED', 'UNSPECIFIED', 'UNSPECIFIED', ('UNSPECIFIED'), ('UNSPECIFIED'), ('UNSPECIFIED') ) ;
#575 = ORIENTED_EDGE ( 'NONE', *, *, #541, .F. ) ;
#576 = FACE_OUTER_BOUND ( 'NONE', #265, .T. ) ;
#577 = ORIENTED_EDGE ( 'NONE', *, *, #770, .T. ) ;
#578 = EDGE_CURVE ( 'NONE', #164, #157, #461, .T. ) ;
#579 = CARTESIAN_POINT ( 'NONE',  ( -379.1892190745223274, -320.0000000000001137, 6.500000000000002665 ) ) ;
#580 = VERTEX_POINT ( 'NONE', #287 ) ;
#581 = DIRECTION ( 'NONE',  ( 1.000000000000000000, 0.000000000000000000, 0.000000000000000000 ) ) ;
#582 = CC_DESIGN_DATE_AND_TIME_ASSIGNMENT ( #540, #7, ( #714 ) ) ;
#583 = AXIS2_PLACEMENT_3D ( 'NONE', #686, #29, #679 ) ;
#584 = LOCAL_TIME ( 15, 49, 2.000000000000000000, #693 ) ;
#585 = CARTESIAN_POINT ( 'NONE',  ( -360.0000000000000568, 338.4999999999998863, 24.50000000000000355 ) ) ;
#586 = ADVANCED_FACE ( 'NONE', ( #525 ), #763, .F. ) ;
#587 = CARTESIAN_POINT ( 'NONE',  ( -380.0000000000000000, 339.9999999999999432, 0.000000000000000000 ) ) ;
#588 = DIRECTION ( 'NONE',  ( 1.000000000000000000, -0.000000000000000000, -0.000000000000000000 ) ) ;
#589 = CARTESIAN_POINT ( 'NONE',  ( -379.1892190745223274, -338.5000000000001137, 6.500000000000002665 ) ) ;
#590 = DIRECTION ( 'NONE',  ( -0.000000000000000000, 1.000000000000000000, -0.000000000000000000 ) ) ;
#591 = VECTOR ( 'NONE', #385, 1000.000000000000000 ) ;
#592 = VECTOR ( 'NONE', #61, 1000.000000000000000 ) ;
#593 = DIRECTION ( 'NONE',  ( 0.000000000000000000, -1.000000000000000000, 0.000000000000000000 ) ) ;
#594 = CC_DESIGN_DATE_AND_TIME_ASSIGNMENT ( #31, #325, ( #379 ) ) ;
#595 = FACE_BOUND ( 'NONE', #683, .T. ) ;
#596 = DIRECTION ( 'NONE',  ( 1.000000000000000000, -0.000000000000000000, -0.000000000000000000 ) ) ;
#597 = DIRECTION ( 'NONE',  ( 0.000000000000000000, 1.000000000000000000, 0.000000000000000000 ) ) ;
#598 = ORIENTED_EDGE ( 'NONE', *, *, #227, .F. ) ;
#599 = LINE ( 'NONE', #57, #441 ) ;
#600 = APPROVAL ( #134, 'UNSPECIFIED' ) ;
#601 = ORIENTED_EDGE ( 'NONE', *, *, #688, .T. ) ;
#602 = DATE_AND_TIME ( #256, #466 ) ;
#603 = DIRECTION ( 'NONE',  ( 0.000000000000000000, 1.000000000000000000, 0.000000000000000000 ) ) ;
#604 = DIRECTION ( 'NONE',  ( -0.000000000000000000, -0.000000000000000000, 1.000000000000000000 ) ) ;
#605 = EDGE_CURVE ( 'NONE', #448, #687, #1, .T. ) ;
#606 = ORIENTED_EDGE ( 'NONE', *, *, #469, .T. ) ;
#607 = EDGE_CURVE ( 'NONE', #700, #567, #773, .T. ) ;
#608 = EDGE_CURVE ( 'NONE', #724, #32, #648, .T. ) ;
#609 = PERSON_AND_ORGANIZATION ( #574, #768 ) ;
#610 = ORIENTED_EDGE ( 'NONE', *, *, #524, .T. ) ;
#611 = PLANE ( 'NONE',  #457 ) ;
#612 = DIRECTION ( 'NONE',  ( 0.000000000000000000, -0.000000000000000000, -1.000000000000000000 ) ) ;
#613 = APPROVAL_ROLE ( '' ) ;
#614 = FACE_OUTER_BOUND ( 'NONE', #643, .T. ) ;
#615 = DIRECTION ( 'NONE',  ( 0.000000000000000000, -0.000000000000000000, 1.000000000000000000 ) ) ;
#616 = CARTESIAN_POINT ( 'NONE',  ( -380.0000000000000000, 339.9999999999999432, 25.00000000000000000 ) ) ;
#617 = CIRCLE ( 'NONE', #583, 3.000000000000002665 ) ;
#618 = DIRECTION ( 'NONE',  ( 4.818676322157798854E-18, -0.000000000000000000, 1.000000000000000000 ) ) ;
#619 = ORIENTED_EDGE ( 'NONE', *, *, #299, .F. ) ;
#620 = DIRECTION ( 'NONE',  ( 1.000000000000000000, 0.000000000000000000, 0.000000000000000000 ) ) ;
#621 = VECTOR ( 'NONE', #590, 1000.000000000000000 ) ;
#622 = EDGE_LOOP ( 'NONE', ( #217, #66, #326, #97 ) ) ;
#623 = LINE ( 'NONE', #616, #161 ) ;
#624 = VERTEX_POINT ( 'NONE', #117 ) ;
#625 = APPLICATION_PROTOCOL_DEFINITION ( 'international standard', 'config_control_design', 1994, #168 ) ;
#626 = ORIENTED_EDGE ( 'NONE', *, *, #242, .T. ) ;
#627 = LINE ( 'NONE', #245, #37 ) ;
#628 = ORIENTED_EDGE ( 'NONE', *, *, #173, .T. ) ;
#629 = CARTESIAN_POINT ( 'NONE',  ( 379.7394020339337430, -338.5000000000001137, 6.500000000000002665 ) ) ;
#630 = ORIENTED_EDGE ( 'NONE', *, *, #743, .T. ) ;
#631 = PLANE ( 'NONE',  #317 ) ;
#632 = ORIENTED_EDGE ( 'NONE', *, *, #359, .T. ) ;
#633 = ORIENTED_EDGE ( 'NONE', *, *, #173, .F. ) ;
#634 = DIRECTION ( 'NONE',  ( 1.000000000000000000, -0.000000000000000000, -0.000000000000000000 ) ) ;
#635 = CIRCLE ( 'NONE', #681, 3.000000000000002665 ) ;
#636 = VERTEX_POINT ( 'NONE', #53 ) ;
#637 = EDGE_CURVE ( 'NONE', #573, #522, #464, .T. ) ;
#638 = CARTESIAN_POINT ( 'NONE',  ( 359.9999999999999432, 319.9999999999998863, 24.50000000000000000 ) ) ;
#639 = ORIENTED_EDGE ( 'NONE', *, *, #420, .T. ) ;
#640 = ORIENTED_EDGE ( 'NONE', *, *, #241, .T. ) ;
#641 = CARTESIAN_POINT ( 'NONE',  ( 215.0000000000000284, -329.5000000000001137, 6.500000000000002665 ) ) ;
#642 = ADVANCED_FACE ( 'NONE', ( #289 ), #473, .T. ) ;
#643 = EDGE_LOOP ( 'NONE', ( #626, #500, #322, #547 ) ) ;
#644 = CARTESIAN_POINT ( 'NONE',  ( 215.0000000000000284, -329.5000000000001137, 25.00000000000000000 ) ) ;
#645 = VECTOR ( 'NONE', #124, 1000.000000000000000 ) ;
#646 = ADVANCED_FACE ( 'NONE', ( #229, #595, #705, #537 ), #296, .T. ) ;
#647 = CARTESIAN_POINT ( 'NONE',  ( -215.0000000000000284, -329.5000000000001137, 24.50000000000000000 ) ) ;
#648 = LINE ( 'NONE', #63, #645 ) ;
#649 = LINE ( 'NONE', #536, #252 ) ;
#650 = CARTESIAN_POINT ( 'NONE',  ( -360.0000000000000568, 338.4999999999998863, 24.50000000000000355 ) ) ;
#651 = CARTESIAN_POINT ( 'NONE',  ( 359.9999999999999432, 319.9999999999998863, 25.00000000000000000 ) ) ;
#652 = LINE ( 'NONE', #119, #80 ) ;
#653 = AXIS2_PLACEMENT_3D ( 'NONE', #366, #22, #677 ) ;
#654 = VECTOR ( 'NONE', #50, 1000.000000000000000 ) ;
#655 = LINE ( 'NONE', #410, #301 ) ;
#656 = CARTESIAN_POINT ( 'NONE',  ( -379.1892190745223274, -338.5000000000001137, 6.500000000000002665 ) ) ;
#657 = EDGE_CURVE ( 'NONE', #675, #43, #710, .T. ) ;
#658 = DIRECTION ( 'NONE',  ( 1.000000000000000000, 0.000000000000000000, 0.000000000000000000 ) ) ;
#659 = ORIENTED_EDGE ( 'NONE', *, *, #147, .T. ) ;
#660 = EDGE_CURVE ( 'NONE', #687, #207, #180, .T. ) ;
#661 = EDGE_CURVE ( 'NONE', #700, #675, #418, .T. ) ;
#662 = VECTOR ( 'NONE', #9, 1000.000000000000000 ) ;
#663 = VECTOR ( 'NONE', #588, 1000.000000000000000 ) ;
#664 =( LENGTH_UNIT ( ) NAMED_UNIT ( * ) SI_UNIT ( .MILLI., .METRE. ) );
#665 = ORIENTED_EDGE ( 'NONE', *, *, #661, .F. ) ;
#666 = EDGE_CURVE ( 'NONE', #569, #724, #126, .T. ) ;
#667 = DIRECTION ( 'NONE',  ( 0.000000000000000000, -1.000000000000000000, 0.000000000000000000 ) ) ;
#668 = DIRECTION ( 'NONE',  ( 0.000000000000000000, 0.000000000000000000, 1.000000000000000000 ) ) ;
#669 = DIRECTION ( 'NONE',  ( 1.000000000000000000, 0.000000000000000000, 0.000000000000000000 ) ) ;
#670 = CARTESIAN_POINT ( 'NONE',  ( 379.7394020339337999, -338.5000000000001137, 24.50000000000000000 ) ) ;
#671 = EDGE_LOOP ( 'NONE', ( #342, #449, #4, #276 ) ) ;
#672 = LINE ( 'NONE', #268, #282 ) ;
#673 = CARTESIAN_POINT ( 'NONE',  ( 218.0000000000000284, -329.5000000000001137, 6.500000000000002665 ) ) ;
#674 = FACE_OUTER_BOUND ( 'NONE', #263, .T. ) ;
#675 = VERTEX_POINT ( 'NONE', #713 ) ;
#676 = DIRECTION ( 'NONE',  ( 0.000000000000000000, 0.000000000000000000, 1.000000000000000000 ) ) ;
#677 = DIRECTION ( 'NONE',  ( 1.000000000000000000, 0.000000000000000000, 0.000000000000000000 ) ) ;
#678 = EDGE_LOOP ( 'NONE', ( #205, #485 ) ) ;
#679 = DIRECTION ( 'NONE',  ( 1.000000000000000000, 0.000000000000000000, 0.000000000000000000 ) ) ;
#680 = ORIENTED_EDGE ( 'NONE', *, *, #666, .T. ) ;
#681 = AXIS2_PLACEMENT_3D ( 'NONE', #305, #676, #748 ) ;
#682 = PERSON_AND_ORGANIZATION ( #574, #768 ) ;
#683 = EDGE_LOOP ( 'NONE', ( #453, #756 ) ) ;
#684 = CARTESIAN_POINT ( 'NONE',  ( -360.0000000000000568, 319.9999999999998863, 24.50000000000000355 ) ) ;
#685 = VERTEX_POINT ( 'NONE', #233 ) ;
#686 = CARTESIAN_POINT ( 'NONE',  ( 218.0000000000000284, -329.5000000000001137, 24.50000000000000000 ) ) ;
#687 = VERTEX_POINT ( 'NONE', #470 ) ;
#688 = EDGE_CURVE ( 'NONE', #125, #496, #417, .T. ) ;
#689 = PERSON_AND_ORGANIZATION ( #574, #768 ) ;
#690 = ORIENTED_EDGE ( 'NONE', *, *, #184, .F. ) ;
#691 = CARTESIAN_POINT ( 'NONE',  ( 0.000000000000000000, 338.4999999999998863, 0.000000000000000000 ) ) ;
#692 = EDGE_LOOP ( 'NONE', ( #155, #619, #628, #747 ) ) ;
#693 = COORDINATED_UNIVERSAL_TIME_OFFSET ( 4, 0, .BEHIND. ) ;
#694 = DIRECTION ( 'NONE',  ( 1.000000000000000000, 0.000000000000000000, 0.000000000000000000 ) ) ;
#695 = EDGE_CURVE ( 'NONE', #624, #448, #172, .T. ) ;
#696 = ORIENTED_EDGE ( 'NONE', *, *, #275, .F. ) ;
#697 = EDGE_CURVE ( 'NONE', #279, #580, #599, .T. ) ;
#698 = CARTESIAN_POINT ( 'NONE',  ( -212.0000000000000284, -329.5000000000001137, 24.50000000000000000 ) ) ;
#699 = VECTOR ( 'NONE', #193, 1000.000000000000000 ) ;
#700 = VERTEX_POINT ( 'NONE', #419 ) ;
#701 = ORIENTED_EDGE ( 'NONE', *, *, #383, .F. ) ;
#702 = CARTESIAN_POINT ( 'NONE',  ( 379.7394020339337430, -338.5000000000001137, 6.500000000000002665 ) ) ;
#703 = PLANE ( 'NONE',  #424 ) ;
#704 = CARTESIAN_POINT ( 'NONE',  ( 380.0000000000001137, -340.0000000000000568, 25.00000000000000000 ) ) ;
#705 = FACE_BOUND ( 'NONE', #761, .T. ) ;
#706 = VECTOR ( 'NONE', #596, 1000.000000000000000 ) ;
#707 = CARTESIAN_POINT ( 'NONE',  ( 0.000000000000000000, 0.000000000000000000, 0.000000000000000000 ) ) ;
#708 = DIRECTION ( 'NONE',  ( -3.083952846180990478E-15, -0.000000000000000000, -1.000000000000000000 ) ) ;
#709 = DIRECTION ( 'NONE',  ( -1.734723475976807094E-16, 1.000000000000000000, -0.000000000000000000 ) ) ;
#710 = LINE ( 'NONE', #236, #572 ) ;
#711 = EDGE_CURVE ( 'NONE', #207, #338, #533, .T. ) ;
#712 = FACE_OUTER_BOUND ( 'NONE', #553, .T. ) ;
#713 = CARTESIAN_POINT ( 'NONE',  ( -360.0000000000000568, 338.4999999999998863, 6.500000000000002665 ) ) ;
#714 = PRODUCT_DEFINITION ( 'UNKNOWN', '', #406, #290 ) ;
#715 = CIRCLE ( 'NONE', #316, 3.000000000000002665 ) ;
#716 = APPROVAL_PERSON_ORGANIZATION ( #185, #166, #363 ) ;
#717 = DIRECTION ( 'NONE',  ( -0.000000000000000000, -0.000000000000000000, 1.000000000000000000 ) ) ;
#718 = EDGE_CURVE ( 'NONE', #513, #164, #652, .T. ) ;
#719 = COORDINATED_UNIVERSAL_TIME_OFFSET ( 4, 0, .BEHIND. ) ;
#720 = PERSON_AND_ORGANIZATION ( #574, #768 ) ;
#721 = ORIENTED_EDGE ( 'NONE', *, *, #607, .T. ) ;
#722 = CARTESIAN_POINT ( 'NONE',  ( -379.1892190745223274, -320.0000000000001137, 6.500000000000002665 ) ) ;
#723 = FACE_OUTER_BOUND ( 'NONE', #371, .T. ) ;
#724 = VERTEX_POINT ( 'NONE', #360 ) ;
#725 = CARTESIAN_POINT ( 'NONE',  ( 359.9999999999999432, 319.9999999999998863, 6.500000000000002665 ) ) ;
#726 = VECTOR ( 'NONE', #486, 1000.000000000000000 ) ;
#727 = AXIS2_PLACEMENT_3D ( 'NONE', #367, #24, #127 ) ;
#728 = EDGE_LOOP ( 'NONE', ( #284, #659, #329, #135 ) ) ;
#729 = LINE ( 'NONE', #506, #758 ) ;
#730 = EDGE_LOOP ( 'NONE', ( #249, #737, #225, #224 ) ) ;
#731 = CC_DESIGN_PERSON_AND_ORGANIZATION_ASSIGNMENT ( #330, #99, ( #379 ) ) ;
#732 = LINE ( 'NONE', #138, #520 ) ;
#733 = PERSON_AND_ORGANIZATION_ROLE ( 'creator' ) ;
#734 = ORIENTED_EDGE ( 'NONE', *, *, #718, .T. ) ;
#735 = PLANE ( 'NONE',  #98 ) ;
#736 = DIRECTION ( 'NONE',  ( -0.000000000000000000, 1.000000000000000000, 0.000000000000000000 ) ) ;
#737 = ORIENTED_EDGE ( 'NONE', *, *, #751, .F. ) ;
#738 = DIRECTION ( 'NONE',  ( 0.000000000000000000, 0.000000000000000000, 1.000000000000000000 ) ) ;
#739 = VERTEX_POINT ( 'NONE', #475 ) ;
#740 = DIRECTION ( 'NONE',  ( 1.000000000000000000, 0.000000000000000000, 0.000000000000000000 ) ) ;
#741 = ORIENTED_EDGE ( 'NONE', *, *, #541, .T. ) ;
#742 = PLANE ( 'NONE',  #364 ) ;
#743 = EDGE_CURVE ( 'NONE', #565, #389, #365, .T. ) ;
#744 = ORIENTED_EDGE ( 'NONE', *, *, #6, .T. ) ;
#745 = VECTOR ( 'NONE', #73, 1000.000000000000000 ) ;
#746 = PERSON_AND_ORGANIZATION_ROLE ( 'design_supplier' ) ;
#747 = ORIENTED_EDGE ( 'NONE', *, *, #152, .T. ) ;
#748 = DIRECTION ( 'NONE',  ( 1.000000000000000000, 0.000000000000000000, 0.000000000000000000 ) ) ;
#749 = ORIENTED_EDGE ( 'NONE', *, *, #605, .F. ) ;
#750 = ADVANCED_FACE ( 'NONE', ( #204 ), #70, .T. ) ;
#751 = EDGE_CURVE ( 'NONE', #164, #102, #75, .T. ) ;
#752 = DIRECTION ( 'NONE',  ( -0.000000000000000000, -0.000000000000000000, 1.000000000000000000 ) ) ;
#753 = ADVANCED_FACE ( 'NONE', ( #497 ), #546, .F. ) ;
#754 = ORIENTED_EDGE ( 'NONE', *, *, #605, .T. ) ;
#755 = CARTESIAN_POINT ( 'NONE',  ( -215.0000000000000284, -329.5000000000001137, 6.500000000000002665 ) ) ;
#756 = ORIENTED_EDGE ( 'NONE', *, *, #335, .F. ) ;
#757 = CARTESIAN_POINT ( 'NONE',  ( -360.0000000000000568, 319.9999999999998863, 24.50000000000000355 ) ) ;
#758 = VECTOR ( 'NONE', #481, 1000.000000000000000 ) ;
#759 = VECTOR ( 'NONE', #167, 1000.000000000000000 ) ;
#760 = ORIENTED_EDGE ( 'NONE', *, *, #711, .F. ) ;
#761 = EDGE_LOOP ( 'NONE', ( #324, #427, #696, #401 ) ) ;
#762 = CARTESIAN_POINT ( 'NONE',  ( 379.7394020339337999, -338.5000000000001137, 24.50000000000000000 ) ) ;
#763 = PLANE ( 'NONE',  #555 ) ;
#764 = DIRECTION ( 'NONE',  ( -0.000000000000000000, -0.000000000000000000, -1.000000000000000000 ) ) ;
#765 = LINE ( 'NONE', #230, #706 ) ;
#766 = DIRECTION ( 'NONE',  ( 1.734723475976807094E-16, -1.000000000000000000, 0.000000000000000000 ) ) ;
#767 = VECTOR ( 'NONE', #709, 1000.000000000000000 ) ;
#768 = ORGANIZATION ( 'UNSPECIFIED', 'UNSPECIFIED', '' ) ;
#769 = LINE ( 'NONE', #232, #3 ) ;
#770 = EDGE_CURVE ( 'NONE', #685, #106, #458, .T. ) ;
#771 = CARTESIAN_POINT ( 'NONE',  ( 379.7394020339337430, -338.5000000000001137, 6.500000000000002665 ) ) ;
#772 = CARTESIAN_POINT ( 'NONE',  ( -212.0000000000000284, -329.5000000000001137, 25.00000000000000000 ) ) ;
#773 = LINE ( 'NONE', #650, #294 ) ;
ENDSEC;
END-ISO-10303-21;
